<svg width="46" height="46" viewBox="0 0 46 46" fill="none" xmlns="http://www.w3.org/2000/svg">
<g filter="url(#filter0_d_2001_3243)">
<rect x="4" y="4" width="38" height="38" rx="12" fill="url(#paint0_linear_2001_3243)"/>
<rect x="4.5" y="4.5" width="37" height="37" rx="11.5" stroke="#FF762B"/>
<path d="M32.005 18.1336L31.5114 17.277C31.1381 16.6292 30.9515 16.3052 30.6339 16.1761C30.3163 16.0469 29.9571 16.1488 29.2388 16.3527L28.0186 16.6964C27.56 16.8021 27.0788 16.7421 26.6601 16.527L26.3232 16.3326C25.9641 16.1026 25.6879 15.7635 25.535 15.3649L25.2011 14.3675C24.9815 13.7075 24.8717 13.3775 24.6103 13.1888C24.349 13 24.0018 13 23.3074 13H22.1926C21.4983 13 21.1511 13 20.8897 13.1888C20.6284 13.3775 20.5186 13.7075 20.299 14.3675L19.965 15.3649C19.8121 15.7635 19.536 16.1026 19.1769 16.3326L18.84 16.527C18.4212 16.7421 17.9401 16.8021 17.4815 16.6964L16.2612 16.3527C15.5429 16.1488 15.1837 16.0469 14.8662 16.1761C14.5486 16.3052 14.3619 16.6292 13.9887 17.277L13.4951 18.1336C13.1452 18.7408 12.9702 19.0445 13.0042 19.3677C13.0381 19.6909 13.2723 19.9514 13.7408 20.4723L14.7718 21.625C15.0238 21.944 15.2027 22.5 15.2027 22.9998C15.2027 23.5 15.0239 24.0558 14.7718 24.3749L13.7408 25.5276C13.2723 26.0485 13.0381 26.309 13.0042 26.6322C12.9702 26.9555 13.1452 27.2591 13.4951 27.8663L13.9886 28.7229C14.3619 29.3707 14.5486 29.6947 14.8662 29.8238C15.1838 29.953 15.5429 29.8511 16.2613 29.6472L17.4814 29.3035C17.9401 29.1977 18.4214 29.2578 18.8402 29.473L19.177 29.6674C19.536 29.8974 19.8121 30.2364 19.965 30.635L20.299 31.6325C20.5186 32.2925 20.6284 32.6225 20.8897 32.8112C21.1511 33 21.4983 33 22.1926 33H23.3074C24.0018 33 24.349 33 24.6103 32.8112C24.8717 32.6225 24.9815 32.2925 25.2011 31.6325L25.5351 30.635C25.6879 30.2364 25.964 29.8974 26.3231 29.6674L26.6599 29.473C27.0787 29.2578 27.5599 29.1977 28.0186 29.3035L29.2388 29.6472C29.9571 29.8511 30.3163 29.953 30.6339 29.8238C30.9515 29.6947 31.1381 29.3707 31.5114 28.7229L32.005 27.8663C32.3549 27.2591 32.5298 26.9555 32.4959 26.6322C32.4619 26.309 32.2277 26.0485 31.7593 25.5276L30.7282 24.3749C30.4762 24.0558 30.2973 23.5 30.2973 22.9998C30.2973 22.5 30.4763 21.944 30.7282 21.625L31.7593 20.4723C32.2277 19.9514 32.4619 19.6909 32.4959 19.3677C32.5298 19.0445 32.3549 18.7408 32.005 18.1336Z" fill="white"/>
<path d="M26.207 22.9922C26.207 24.9252 24.64 26.4922 22.707 26.4922C20.774 26.4922 19.207 24.9252 19.207 22.9922C19.207 21.0592 20.774 19.4922 22.707 19.4922C24.64 19.4922 26.207 21.0592 26.207 22.9922Z" fill="#FE7A23" fill-opacity="0.6"/>
</g>
<defs>
<filter id="filter0_d_2001_3243" x="0" y="0" width="46" height="46" filterUnits="userSpaceOnUse" color-interpolation-filters="sRGB">
<feFlood flood-opacity="0" result="BackgroundImageFix"/>
<feColorMatrix in="SourceAlpha" type="matrix" values="0 0 0 0 0 0 0 0 0 0 0 0 0 0 0 0 0 0 127 0" result="hardAlpha"/>
<feOffset/>
<feGaussianBlur stdDeviation="2"/>
<feComposite in2="hardAlpha" operator="out"/>
<feColorMatrix type="matrix" values="0 0 0 0 0 0 0 0 0 0.0392157 0 0 0 0 0.121569 0 0 0 0.2 0"/>
<feBlend mode="normal" in2="BackgroundImageFix" result="effect1_dropShadow_2001_3243"/>
<feBlend mode="normal" in="SourceGraphic" in2="effect1_dropShadow_2001_3243" result="shape"/>
</filter>
<linearGradient id="paint0_linear_2001_3243" x1="23" y1="4" x2="23" y2="42" gradientUnits="userSpaceOnUse">
<stop stop-color="#FD7013"/>
<stop offset="1" stop-color="#FFA264"/>
</linearGradient>
</defs>
</svg>
