<svg width="46" height="46" viewBox="0 0 46 46" fill="none" xmlns="http://www.w3.org/2000/svg">
<g filter="url(#filter0_d_2001_515)">
<rect x="4" y="4" width="38" height="38" rx="12" fill="url(#paint0_linear_2001_515)"/>
<rect x="4.5" y="4.5" width="37" height="37" rx="11.5" stroke="#FF762B"/>
<path d="M33.18 24.66C33.03 23.01 32.59 21.25 29.38 21.25H16.62C13.41 21.25 12.98 23.01 12.82 24.66L12.26 30.75C12.19 31.51 12.44 32.27 12.96 32.84C13.49 33.42 14.24 33.75 15.04 33.75H16.92C18.54 33.75 18.85 32.82 19.05 32.21L19.25 31.61C19.48 30.92 19.54 30.75 20.44 30.75H25.56C26.46 30.75 26.49 30.85 26.75 31.61L26.95 32.21C27.15 32.82 27.46 33.75 29.08 33.75H30.96C31.75 33.75 32.51 33.42 33.04 32.84C33.56 32.27 33.81 31.51 33.74 30.75L33.18 24.66Z" fill="white"/>
<path d="M32 18.25H31C30.99 18.25 30.99 18.25 30.98 18.25L30.6 16.44C30.24 14.69 29.49 13.08 26.51 13.08H23.75H22.25H19.49C16.51 13.08 15.76 14.69 15.4 16.44L15.02 18.25C15.01 18.25 15.01 18.25 15 18.25H14C13.59 18.25 13.25 18.59 13.25 19C13.25 19.41 13.59 19.75 14 19.75H14.71L14.29 21.75C14.83 21.44 15.58 21.25 16.62 21.25H29.38C30.42 21.25 31.17 21.44 31.71 21.75L31.29 19.75H32C32.41 19.75 32.75 19.41 32.75 19C32.75 18.59 32.41 18.25 32 18.25Z" fill="white" fill-opacity="0.6"/>
<path d="M20 26.75H17C16.59 26.75 16.25 26.41 16.25 26C16.25 25.59 16.59 25.25 17 25.25H20C20.41 25.25 20.75 25.59 20.75 26C20.75 26.41 20.41 26.75 20 26.75Z" fill="#FF762B"/>
<path d="M29 26.75H26C25.59 26.75 25.25 26.41 25.25 26C25.25 25.59 25.59 25.25 26 25.25H29C29.41 25.25 29.75 25.59 29.75 26C29.75 26.41 29.41 26.75 29 26.75Z" fill="#FF762B"/>
</g>
<defs>
<filter id="filter0_d_2001_515" x="0" y="0" width="46" height="46" filterUnits="userSpaceOnUse" color-interpolation-filters="sRGB">
<feFlood flood-opacity="0" result="BackgroundImageFix"/>
<feColorMatrix in="SourceAlpha" type="matrix" values="0 0 0 0 0 0 0 0 0 0 0 0 0 0 0 0 0 0 127 0" result="hardAlpha"/>
<feOffset/>
<feGaussianBlur stdDeviation="2"/>
<feComposite in2="hardAlpha" operator="out"/>
<feColorMatrix type="matrix" values="0 0 0 0 0 0 0 0 0 0.0392157 0 0 0 0 0.121569 0 0 0 0.2 0"/>
<feBlend mode="normal" in2="BackgroundImageFix" result="effect1_dropShadow_2001_515"/>
<feBlend mode="normal" in="SourceGraphic" in2="effect1_dropShadow_2001_515" result="shape"/>
</filter>
<linearGradient id="paint0_linear_2001_515" x1="23" y1="4" x2="23" y2="42" gradientUnits="userSpaceOnUse">
<stop stop-color="#FD7013"/>
<stop offset="1" stop-color="#FFA264"/>
</linearGradient>
</defs>
</svg>
