<svg width="46" height="46" viewBox="0 0 46 46" fill="none" xmlns="http://www.w3.org/2000/svg">
<g filter="url(#filter0_d_2011_1632)">
<rect x="4" y="4" width="38" height="38" rx="12" fill="url(#paint0_linear_2011_1632)"/>
<rect x="4.5" y="4.5" width="37" height="37" rx="11.5" stroke="#FF762B"/>
<path d="M31.1582 24.3567C29.9687 25.546 27.7306 25.4998 24.299 25.4998C22.0912 25.4998 20.3012 23.7071 20.3 21.4993C20.3 18.07 20.2538 15.8307 21.4433 14.6414C22.6327 13.4521 23.1581 13.5003 28.4272 13.5003C28.9364 13.4981 29.1927 14.1139 28.8327 14.4739L26.1197 17.1871C25.4311 17.8758 25.4292 18.9923 26.1179 19.6809C26.8066 20.3695 27.9232 20.3696 28.612 19.6811L31.3257 16.9685C31.6858 16.6086 32.3017 16.8648 32.2995 17.374C32.2995 22.6422 32.3477 23.1675 31.1582 24.3567Z" fill="white" fill-opacity="0.6"/>
<path d="M14.1282 27.6716C13.0237 28.7761 13.0237 30.567 14.1282 31.6716C15.2328 32.7761 17.0237 32.7761 18.1282 31.6716L24.2998 25.5L20.2998 21.5L14.1282 27.6716Z" fill="white"/>
<path d="M16.3088 29.5H16.2998" stroke="#FF762B" stroke-width="2" stroke-linecap="round" stroke-linejoin="round"/>
</g>
<defs>
<filter id="filter0_d_2011_1632" x="0" y="0" width="46" height="46" filterUnits="userSpaceOnUse" color-interpolation-filters="sRGB">
<feFlood flood-opacity="0" result="BackgroundImageFix"/>
<feColorMatrix in="SourceAlpha" type="matrix" values="0 0 0 0 0 0 0 0 0 0 0 0 0 0 0 0 0 0 127 0" result="hardAlpha"/>
<feOffset/>
<feGaussianBlur stdDeviation="2"/>
<feComposite in2="hardAlpha" operator="out"/>
<feColorMatrix type="matrix" values="0 0 0 0 0 0 0 0 0 0.0392157 0 0 0 0 0.121569 0 0 0 0.2 0"/>
<feBlend mode="normal" in2="BackgroundImageFix" result="effect1_dropShadow_2011_1632"/>
<feBlend mode="normal" in="SourceGraphic" in2="effect1_dropShadow_2011_1632" result="shape"/>
</filter>
<linearGradient id="paint0_linear_2011_1632" x1="23" y1="4" x2="23" y2="42" gradientUnits="userSpaceOnUse">
<stop stop-color="#FD7013"/>
<stop offset="1" stop-color="#FFA264"/>
</linearGradient>
</defs>
</svg>
