<svg width="46" height="46" viewBox="0 0 46 46" fill="none" xmlns="http://www.w3.org/2000/svg">
<g filter="url(#filter0_d_2011_1597)">
<rect x="4" y="4" width="38" height="38" rx="12" fill="url(#paint0_linear_2011_1597)"/>
<rect x="4.5" y="4.5" width="37" height="37" rx="11.5" stroke="#FF762B"/>
<path d="M21.6 15.15V17H20.12C18.51 17 17.7 17.81 17.7 19.42V29H15.15C13.72 29 13 28.28 13 26.85V15.15C13 13.72 13.72 13 15.15 13H19.45C20.88 13 21.6 13.72 21.6 15.15Z" fill="white"/>
<path d="M28.3699 19.42V30.58C28.3699 32.19 27.57 33 25.96 33H20.1199C18.5099 33 17.7 32.19 17.7 30.58V19.42C17.7 17.81 18.5099 17 20.1199 17H25.96C27.57 17 28.3699 17.81 28.3699 19.42Z" fill="white" fill-opacity="0.6"/>
<path d="M32.9999 15.15V26.85C32.9999 28.28 32.2799 29 30.8499 29H28.3699V19.42C28.3699 17.81 27.5699 17 25.9599 17H24.3999V15.15C24.3999 13.72 25.1199 13 26.5499 13H30.8499C32.2799 13 32.9999 13.72 32.9999 15.15Z" fill="white"/>
<path d="M25 22.75H21C20.59 22.75 20.25 22.41 20.25 22C20.25 21.59 20.59 21.25 21 21.25H25C25.41 21.25 25.75 21.59 25.75 22C25.75 22.41 25.41 22.75 25 22.75Z" fill="white"/>
<path d="M25 25.75H21C20.59 25.75 20.25 25.41 20.25 25C20.25 24.59 20.59 24.25 21 24.25H25C25.41 24.25 25.75 24.59 25.75 25C25.75 25.41 25.41 25.75 25 25.75Z" fill="white"/>
<path d="M23.75 30V33H22.25V30C22.25 29.59 22.59 29.25 23 29.25C23.41 29.25 23.75 29.59 23.75 30Z" fill="white"/>
</g>
<defs>
<filter id="filter0_d_2011_1597" x="0" y="0" width="46" height="46" filterUnits="userSpaceOnUse" color-interpolation-filters="sRGB">
<feFlood flood-opacity="0" result="BackgroundImageFix"/>
<feColorMatrix in="SourceAlpha" type="matrix" values="0 0 0 0 0 0 0 0 0 0 0 0 0 0 0 0 0 0 127 0" result="hardAlpha"/>
<feOffset/>
<feGaussianBlur stdDeviation="2"/>
<feComposite in2="hardAlpha" operator="out"/>
<feColorMatrix type="matrix" values="0 0 0 0 0 0 0 0 0 0.0392157 0 0 0 0 0.121569 0 0 0 0.2 0"/>
<feBlend mode="normal" in2="BackgroundImageFix" result="effect1_dropShadow_2011_1597"/>
<feBlend mode="normal" in="SourceGraphic" in2="effect1_dropShadow_2011_1597" result="shape"/>
</filter>
<linearGradient id="paint0_linear_2011_1597" x1="23" y1="4" x2="23" y2="42" gradientUnits="userSpaceOnUse">
<stop stop-color="#FD7013"/>
<stop offset="1" stop-color="#FFA264"/>
</linearGradient>
</defs>
</svg>
