<svg width="20" height="20" viewBox="0 0 20 20" fill="none" xmlns="http://www.w3.org/2000/svg">
<path d="M7.42499 17.225C7.26666 17.225 7.10833 17.1667 6.98333 17.0417C6.74166 16.8 6.74166 16.4 6.98333 16.1583L12.4167 10.725C12.8167 10.325 12.8167 9.67502 12.4167 9.27502L6.98333 3.84168C6.74166 3.60002 6.74166 3.20002 6.98333 2.95835C7.22499 2.71668 7.62499 2.71668 7.86666 2.95835L13.3 8.39168C13.725 8.81668 13.9667 9.39168 13.9667 10C13.9667 10.6084 13.7333 11.1834 13.3 11.6084L7.86666 17.0417C7.74166 17.1584 7.58333 17.225 7.42499 17.225Z" fill="#9E9EA3"/>
</svg>
