<svg width="14" height="14" viewBox="0 0 14 14" fill="none" xmlns="http://www.w3.org/2000/svg">
<path d="M6.9799 0.333252C3.2999 0.333252 0.313232 3.31992 0.313232 6.99992C0.313232 10.6799 3.2999 13.6666 6.9799 13.6666C10.6599 13.6666 13.6466 10.6799 13.6466 6.99992C13.6466 3.31992 10.6666 0.333252 6.9799 0.333252ZM9.4799 7.23325L6.9999 10.0533L6.70657 10.3866C6.2999 10.8466 5.96657 10.7266 5.96657 10.1066V7.46658H4.83323C4.3199 7.46658 4.1799 7.15325 4.5199 6.76658L6.9999 3.94659L7.29323 3.61325C7.6999 3.15325 8.03323 3.27325 8.03323 3.89325V6.53325H9.16656C9.6799 6.53325 9.8199 6.84659 9.4799 7.23325Z" fill="#1F4CEA"/>
</svg>
