<svg width="178" height="198" viewBox="0 0 178 198" fill="none" xmlns="http://www.w3.org/2000/svg">
<path fill-rule="evenodd" clip-rule="evenodd" d="M110.115 166.934C100.453 174.138 90.4382 179.536 80.6593 182.985C60.1065 190.233 41.8107 188.58 29.0472 179.068C16.2837 169.555 9.47117 152.495 10.5434 130.728C11.6116 109.04 20.576 83.9188 37.7171 60.9199C54.8582 37.921 76.3701 22.1512 96.8475 14.9296C117.4 7.68152 135.696 9.33434 148.46 18.847C161.223 28.3597 168.036 45.42 166.963 67.1871C165.895 88.8743 156.931 113.996 139.79 136.995C134.442 144.17 128.668 150.642 122.634 156.37H53.7072L44.9541 158.332V154.861C56.3231 153.05 66.6356 150.535 75.8918 147.315C85.1479 144.096 93.398 140.072 100.642 135.242C107.886 130.413 113.52 124.578 117.544 117.736C121.569 110.794 123.581 103.148 123.581 94.7969C123.581 83.4279 120.11 74.6245 113.168 68.3867C106.326 62.1489 97.1205 59.03 85.5504 59.03C71.7668 59.03 60.6996 63.3059 52.349 71.8578C43.9983 80.4096 39.823 93.7405 39.823 111.85H52.1981C52.1981 83.6795 63.4161 69.594 85.8522 69.594C94.0016 69.594 100.239 71.7571 104.566 76.0834C108.993 80.309 111.206 86.4966 111.206 94.646C111.206 100.783 109.747 106.468 106.829 111.699C104.012 116.931 100.189 121.308 95.3599 124.829C90.5306 128.35 85.5504 131.419 80.4192 134.035C75.3887 136.55 69.9558 138.613 64.1204 140.222C58.285 141.832 53.7072 142.989 50.3871 143.693C47.0669 144.398 44.0486 144.951 41.3322 145.354V166.934H110.115ZM148.156 143.23C111.738 192.095 55.6189 211.886 22.8116 187.434C-9.99577 162.983 -7.06819 103.549 29.3505 54.6843C65.7692 5.81984 121.888 -13.9709 154.695 10.4804C187.503 34.9317 184.575 94.3659 148.156 143.23Z" fill="white" fill-opacity="0.5"/>
</svg>
