<svg width="215" height="240" viewBox="0 0 215 240" fill="none" xmlns="http://www.w3.org/2000/svg">
<path fill-rule="evenodd" clip-rule="evenodd" d="M114.23 214.229C108.69 217.161 103.141 219.604 97.6537 221.539C72.7706 230.314 50.62 228.313 35.1673 216.796C19.7145 205.279 11.4667 184.624 12.7648 158.271C14.0581 132.014 24.9113 101.6 45.6639 73.7554C66.4165 45.9108 92.4608 26.8183 117.253 18.0752C142.136 9.29996 164.286 11.301 179.739 22.818C195.192 34.3349 203.44 54.9897 202.142 81.343C200.848 107.6 189.995 138.014 169.243 165.859C157.246 181.955 143.481 195.127 129.212 205.065V90.2752H98.8817C98.5163 119.631 87.4317 138.694 65.6281 147.464L70.3786 160.254C78.0525 157.696 84.6301 154.225 90.1115 149.839C95.5929 145.333 99.7953 140.034 102.719 133.943C105.764 127.853 108.017 121.702 109.479 115.49C110.941 109.277 111.915 102.273 112.402 94.4776H116.787L114.23 104.892V214.229ZM179.372 173.408C135.28 232.568 67.3375 256.529 27.6178 226.925C-12.1018 197.322 -8.55742 125.366 35.5345 66.2059C79.6263 7.04605 147.569 -16.9145 187.289 12.6885C227.008 42.2916 223.464 114.248 179.372 173.408Z" fill="white"/>
</svg>
