<svg width="143" height="160" viewBox="0 0 143 160" fill="none" xmlns="http://www.w3.org/2000/svg">
<path fill-rule="evenodd" clip-rule="evenodd" d="M76.0493 142.198C72.3111 144.188 68.5656 145.841 64.8622 147.147C48.3346 152.976 33.6221 151.647 23.3583 143.997C13.0945 136.348 7.61624 122.629 8.47844 105.125C9.33748 87.6848 16.5462 67.4833 30.3302 48.9888C44.1142 30.4942 61.413 17.8129 77.88 12.0057C94.4075 6.17709 109.12 7.50621 119.384 15.1558C129.648 22.8054 135.126 36.5245 134.264 54.0285C133.405 71.4683 126.196 91.6697 112.412 110.164C108.151 115.881 103.554 121.043 98.7502 125.618C99.4887 123.25 99.858 120.668 99.858 117.873C99.858 111.643 98.3613 107.072 95.3677 104.159C92.4551 101.166 88.0458 99.0622 82.1397 97.8486V95.0574C93.1428 93.3583 98.6444 87.4927 98.6444 77.4604C98.6444 70.6643 95.9745 65.2031 90.6348 61.0769C85.3759 56.8698 77.7707 54.7663 67.8193 54.7663C56.8162 54.7663 48.402 57.2744 42.5767 62.2905C36.7515 67.2258 33.8389 74.4669 33.8389 84.0137H43.7903C43.7903 76.894 45.6512 71.6756 49.3728 68.3585C53.1754 64.9604 59.3242 63.2614 67.8193 63.2614C81.7351 63.2614 88.693 68.4394 88.693 78.7953C88.693 87.7758 83.596 92.2661 73.4018 92.2661H61.5087V100.761H73.4018C84.405 100.761 89.9066 105.98 89.9066 116.416C89.9066 128.31 82.5442 134.256 67.8193 134.256C59.0006 134.256 52.5686 132.314 48.5233 128.431C44.5589 124.548 42.5767 118.035 42.5767 108.892H32.6253C32.6253 131.465 44.3567 142.751 67.8193 142.751C70.7537 142.751 73.497 142.567 76.0493 142.198ZM119.14 115.179C89.8539 154.473 44.726 170.388 18.3439 150.725C-8.0381 131.063 -5.68389 83.2687 23.6022 43.9744C52.8883 4.68003 98.0162 -11.2347 124.398 8.42781C150.78 28.0903 148.426 75.8843 119.14 115.179Z" fill="white" fill-opacity="0.3"/>
</svg>
