<svg width="20" height="20" viewBox="0 0 20 20" fill="none" xmlns="http://www.w3.org/2000/svg">
<g clip-path="url(#clip0_2057_6439)">
<path d="M5.5893 15.5892C5.26386 15.9147 4.73622 15.9147 4.41078 15.5892C4.08535 15.2638 4.08535 14.7362 4.41079 14.4107L8.82153 9.99999L4.41078 5.58925C4.08535 5.26381 4.08535 4.73617 4.41078 4.41073C4.73622 4.0853 5.26386 4.0853 5.5893 4.41073L10 8.82148L14.4108 4.41073C14.7362 4.0853 15.2639 4.0853 15.5893 4.41073C15.9147 4.73617 15.9147 5.26381 15.5893 5.58925L11.1786 9.99999L15.5893 14.4107C15.9147 14.7362 15.9147 15.2638 15.5893 15.5892C15.2639 15.9147 14.7362 15.9147 14.4108 15.5892L10 11.1785L5.5893 15.5892Z" fill="#45484D"/>
</g>
<defs>
<clipPath id="clip0_2057_6439">
<rect width="20" height="20" fill="white"/>
</clipPath>
</defs>
</svg>
