<svg width="10" height="11" viewBox="0 0 10 11" fill="none" xmlns="http://www.w3.org/2000/svg">
<path d="M2.79462 8.2946C2.6319 8.45732 2.36808 8.45732 2.20536 8.2946C2.04264 8.13189 2.04264 7.86807 2.20536 7.70535L4.41073 5.49998L2.20536 3.29461C2.04264 3.13189 2.04264 2.86807 2.20536 2.70535C2.36808 2.54263 2.6319 2.54263 2.79462 2.70535L4.99999 4.91072L7.20536 2.70535C7.36808 2.54263 7.6319 2.54263 7.79462 2.70535C7.95734 2.86807 7.95734 3.13189 7.79462 3.29461L5.58924 5.49998L7.79462 7.70535C7.95734 7.86807 7.95734 8.13189 7.79462 8.29461C7.6319 8.45733 7.36808 8.45733 7.20536 8.29461L4.99999 6.08923L2.79462 8.2946Z" fill="#FF762B" stroke="#FF762B" stroke-width="0.3" stroke-linecap="round" stroke-linejoin="round"/>
</svg>
