<svg width="10" height="11" viewBox="0 0 10 11" fill="none" xmlns="http://www.w3.org/2000/svg">
<path d="M2.79463 8.2946C2.63191 8.45732 2.36809 8.45732 2.20537 8.2946C2.04265 8.13189 2.04265 7.86807 2.20537 7.70535L4.41074 5.49998L2.20537 3.29461C2.04265 3.13189 2.04265 2.86807 2.20537 2.70535C2.36809 2.54263 2.63191 2.54263 2.79462 2.70535L5 4.91072L7.20537 2.70535C7.36809 2.54263 7.63191 2.54263 7.79463 2.70535C7.95734 2.86807 7.95734 3.13189 7.79463 3.29461L5.58925 5.49998L7.79463 7.70535C7.95734 7.86807 7.95734 8.13189 7.79463 8.29461C7.63191 8.45733 7.36809 8.45733 7.20537 8.29461L5 6.08923L2.79463 8.2946Z" fill="#97969D" stroke="#97969D" stroke-width="0.3" stroke-linecap="round" stroke-linejoin="round"/>
</svg>
