<svg width="20" height="20" viewBox="0 0 20 20" fill="none" xmlns="http://www.w3.org/2000/svg">
<g clip-path="url(#clip0_1629_75526)">
<path d="M5.58942 15.5892C5.26398 15.9146 4.73634 15.9146 4.41091 15.5892C4.08547 15.2638 4.08547 14.7361 4.41091 14.4107L8.82165 9.99996L4.41091 5.58922C4.08547 5.26378 4.08547 4.73614 4.41091 4.4107C4.73634 4.08527 5.26398 4.08527 5.58942 4.4107L10.0002 8.82145L14.4109 4.4107C14.7363 4.08527 15.264 4.08527 15.5894 4.4107C15.9149 4.73614 15.9149 5.26378 15.5894 5.58922L11.1787 9.99996L15.5894 14.4107C15.9149 14.7361 15.9149 15.2638 15.5894 15.5892C15.264 15.9147 14.7363 15.9147 14.4109 15.5892L10.0002 11.1785L5.58942 15.5892Z" fill="#45484D"/>
</g>
<defs>
<clipPath id="clip0_1629_75526">
<rect width="20" height="20" fill="white"/>
</clipPath>
</defs>
</svg>
