<svg width="196" height="247" viewBox="0 0 196 247" fill="none" xmlns="http://www.w3.org/2000/svg">
<path d="M133.96 197.797L126.123 168.578L49.0501 189.207L42.6766 165.447C48.9483 138.072 61.2493 98.5303 79.5798 46.8208L118.865 36.3057L146.398 138.947L167.165 133.389L173.222 155.972L152.456 161.53L160.293 190.749L133.96 197.797ZM68.0122 159.813L68.2132 160.562L120.665 146.523L98.4439 63.682L98.0158 63.7966C90.0283 86.2006 83.7652 104.625 79.2264 119.07C74.6876 133.516 70.9496 147.096 68.0122 159.813Z" fill="#F4F4F4"/>
<path d="M129.827 43.6788C130.278 42.0846 130.497 40.284 127.498 39.1372L115.58 34.5787C112.582 33.4319 111.551 34.9217 110.811 36.4052L108.108 41.8917C107.77 42.5764 107.732 43.3753 108.014 44.0933C108.301 44.8242 108.883 45.4003 109.631 45.6861L111.387 46.3577C112.9 46.9365 113.522 46.1789 113.927 45.6807L114.329 45.1919C114.79 44.6298 114.907 44.4925 115.748 44.814L120.53 46.6431C121.371 46.9647 121.363 47.0688 121.334 47.8713L121.306 48.503C121.274 49.144 121.231 50.1232 122.744 50.7019L124.5 51.3735C125.238 51.6558 126.066 51.6191 126.768 51.2669C127.458 50.9204 127.964 50.3001 128.17 49.5654L129.827 43.6788Z" fill="#FED5BB"/>
<path d="M131.019 37.2719L130.085 36.9147C130.076 36.9111 130.076 36.9111 130.067 36.9076L130.359 35.0817C130.65 33.319 130.525 31.5478 127.742 30.4832L125.164 29.4972L123.763 28.9613L121.185 27.9753C118.402 26.9107 117.125 28.1461 116.163 29.6515L115.16 31.2059C115.15 31.2023 115.15 31.2023 115.141 31.1987L114.207 30.8415C113.824 30.695 113.385 30.891 113.238 31.2738C113.091 31.6567 113.287 32.0956 113.67 32.2421L114.333 32.4957L113.225 34.2132C113.841 34.1166 114.609 34.2072 115.58 34.5787L127.498 39.1372C128.47 39.5087 129.102 39.9541 129.496 40.4365L129.819 38.4189L130.482 38.6726C130.865 38.819 131.305 38.623 131.451 38.2402C131.598 37.8574 131.402 37.4184 131.019 37.2719Z" fill="#FDC7A5"/>
<path d="M116.769 40.9218L113.967 39.8501C113.584 39.7036 113.388 39.2647 113.535 38.8818C113.681 38.499 114.121 38.303 114.504 38.4495L117.306 39.5212C117.689 39.6677 117.884 40.1066 117.738 40.4895C117.591 40.8723 117.152 41.0683 116.769 40.9218Z" fill="#FF762B"/>
<path d="M125.175 44.1371L122.373 43.0653C121.99 42.9188 121.794 42.4799 121.941 42.0971C122.087 41.7142 122.527 41.5182 122.91 41.6647L125.712 42.7364C126.095 42.8829 126.291 43.3219 126.144 43.7047C125.997 44.0875 125.558 44.2835 125.175 44.1371Z" fill="#FF762B"/>
</svg>
