<svg width="196" height="245" viewBox="0 0 196 245" fill="none" xmlns="http://www.w3.org/2000/svg">
<path d="M92.1712 204.299L99.9984 175.12L23.0303 154.519L29.3952 130.79C48.5029 110.244 78.9073 82.181 120.608 46.6027L159.841 57.1035L132.345 159.606L153.084 165.157L147.034 187.709L126.296 182.158L118.469 211.338L92.1712 204.299ZM54.1231 138.554L53.9224 139.303L106.303 153.323L128.495 70.5942L128.067 70.4798C109.96 85.872 95.3336 98.6826 84.1875 108.912C73.0415 119.141 63.02 129.022 54.1231 138.554Z" fill="#F4F4F4"/>
<g clip-path="url(#clip0_2095_41576)">
<path d="M73.5998 186.476C72.0762 187.191 69.9871 186.387 66.7596 185.221C64.6832 184.47 63.61 182.176 64.3605 180.1C65.528 176.876 66.2469 174.754 67.7705 174.04C69.294 173.326 69.7717 173.55 74.7273 175.341C75.207 175.512 75.2384 176.178 74.7772 176.394L71.3019 178.023C70.4198 178.437 70.0379 179.486 70.4512 180.367C70.8645 181.249 71.9147 181.628 72.7969 181.215L76.2726 179.587C76.7338 179.37 77.2259 179.821 77.0505 180.299C75.2569 185.252 75.1234 185.762 73.5998 186.476Z" fill="#FEEADD"/>
<path d="M56.4546 183.807C55.0397 184.47 54.43 186.154 55.0928 187.568C55.7556 188.982 57.4399 189.59 58.8548 188.927L66.7603 185.221L64.3601 180.101L56.4546 183.807Z" fill="#FDC7A5"/>
<path d="M57.8829 186.267L57.8745 186.264" stroke="#FF762B" stroke-width="2" stroke-linecap="round" stroke-linejoin="round"/>
</g>
<defs>
<clipPath id="clip0_2095_41576">
<rect width="24" height="24" fill="white" transform="matrix(0.9405 0.339794 -0.340447 0.940264 59 167)"/>
</clipPath>
</defs>
</svg>
