<svg width="570" height="565" viewBox="0 0 570 565" fill="none" xmlns="http://www.w3.org/2000/svg">
<path d="M555.529 145.024L541.101 120.825C530.189 102.523 524.734 93.3729 515.451 89.724C506.168 86.0751 495.669 88.9544 474.672 94.7129L439.003 104.422C425.598 107.41 411.533 105.715 399.293 99.6372L389.446 94.1461C378.95 87.6491 370.876 78.0695 366.407 66.8093L356.646 38.6331C350.227 19.9876 347.018 10.6648 339.378 5.33241C331.738 0 321.589 0 301.293 0H268.707C248.411 0 238.262 0 230.622 5.33241C222.982 10.6648 219.773 19.9876 213.354 38.6331L203.593 66.8093C199.124 78.0695 191.05 87.6491 180.554 94.1461L170.707 99.6372C158.467 105.715 144.402 107.41 130.997 104.422L95.3285 94.7129C74.3311 88.9544 63.8324 86.0751 54.5495 89.724C45.2665 93.3729 39.8107 102.523 28.8991 120.825L14.4711 145.024C4.24302 162.178 -0.870991 170.756 0.121526 179.887C1.1141 189.018 7.96036 196.376 21.6529 211.093L51.791 243.657C59.1571 252.669 64.3867 268.375 64.3867 282.495C64.3867 296.625 59.1588 312.327 51.7917 321.341L21.653 353.905C7.96047 368.622 1.11415 375.98 0.121582 385.111C-0.870991 394.242 4.24319 402.819 14.4712 419.974L28.8986 444.172C39.8101 462.473 45.2665 471.625 54.5495 475.273C63.8326 478.922 74.3315 476.043 95.3291 470.284L130.996 460.574C144.403 457.586 158.47 459.281 170.712 465.362L180.558 470.853C191.052 477.351 199.124 486.929 203.592 498.188L213.354 526.367C219.773 545.012 222.982 554.335 230.622 559.668C238.262 565 248.411 565 268.707 565H301.293C321.589 565 331.738 565 339.378 559.668C347.018 554.335 350.227 545.012 356.646 526.367L366.408 498.188C370.876 486.929 378.948 477.351 389.442 470.853L399.288 465.362C411.53 459.281 425.597 457.586 439.004 460.574L474.671 470.284C495.669 476.043 506.167 478.922 515.451 475.273C524.734 471.625 530.19 462.473 541.101 444.172L555.529 419.974C565.757 402.819 570.871 394.242 569.878 385.111C568.886 375.98 562.04 368.622 548.347 353.905L518.208 321.341C510.841 312.327 505.613 296.625 505.613 282.495C505.613 268.375 510.843 252.669 518.209 243.657L548.347 211.093C562.04 196.376 568.886 189.018 569.879 179.887C570.871 170.756 565.757 162.178 555.529 145.024Z" fill="#F4F4F4"/>
<path d="M456 282.5C456 373.351 379.665 447 285.5 447C191.335 447 115 373.351 115 282.5C115 191.649 191.335 118 285.5 118C379.665 118 456 191.649 456 282.5Z" fill="white"/>
<path d="M55.3584 269.357C54.1689 270.546 51.9308 270.5 48.4992 270.5C46.2914 270.5 44.5014 268.707 44.5002 266.499C44.5002 263.07 44.454 260.831 45.6435 259.641C46.8329 258.452 47.3583 258.5 52.6274 258.5C53.1366 258.498 53.3929 259.114 53.0329 259.474L50.3199 262.187C49.6313 262.876 49.6294 263.992 50.3181 264.681C51.0068 265.37 52.1234 265.37 52.8122 264.681L55.5259 261.969C55.886 261.609 56.5019 261.865 56.4997 262.374C56.4997 267.642 56.5479 268.167 55.3584 269.357Z" fill="#FEEADD"/>
<path d="M38.3284 272.672C37.2239 273.776 37.2239 275.567 38.3284 276.672C39.433 277.776 41.2239 277.776 42.3284 276.672L48.5 270.5L44.5 266.5L38.3284 272.672Z" fill="#FDC7A5"/>
<path d="M40.509 274.5H40.5" stroke="#FF762B" stroke-width="2" stroke-linecap="round" stroke-linejoin="round"/>
<path d="M525.827 383.679C526.278 382.085 526.497 380.284 523.498 379.137L511.58 374.579C508.582 373.432 507.551 374.922 506.811 376.405L504.108 381.892C503.77 382.576 503.732 383.375 504.014 384.093C504.301 384.824 504.883 385.4 505.631 385.686L507.387 386.358C508.9 386.936 509.522 386.179 509.927 385.681L510.329 385.192C510.79 384.63 510.907 384.492 511.748 384.814L516.53 386.643C517.371 386.965 517.363 387.069 517.334 387.871L517.306 388.503C517.274 389.144 517.231 390.123 518.744 390.702L520.5 391.374C521.238 391.656 522.066 391.619 522.768 391.267C523.458 390.92 523.964 390.3 524.17 389.565L525.827 383.679Z" fill="#FED5BB"/>
<path d="M527.019 377.272L526.085 376.915C526.076 376.911 526.076 376.911 526.067 376.908L526.359 375.082C526.65 373.319 526.525 371.548 523.742 370.483L521.164 369.497L519.763 368.961L517.185 367.975C514.402 366.911 513.125 368.146 512.163 369.651L511.16 371.206C511.15 371.202 511.15 371.202 511.141 371.199L510.207 370.841C509.824 370.695 509.385 370.891 509.238 371.274C509.091 371.657 509.287 372.096 509.67 372.242L510.333 372.496L509.225 374.213C509.84 374.117 510.609 374.207 511.58 374.579L523.498 379.137C524.47 379.509 525.102 379.954 525.496 380.436L525.819 378.419L526.482 378.673C526.865 378.819 527.305 378.623 527.451 378.24C527.598 377.857 527.402 377.418 527.019 377.272Z" fill="#FDC7A5"/>
<path d="M512.769 380.922L509.967 379.85C509.584 379.704 509.388 379.265 509.535 378.882C509.681 378.499 510.121 378.303 510.504 378.449L513.306 379.521C513.689 379.668 513.884 380.107 513.738 380.489C513.591 380.872 513.152 381.068 512.769 380.922Z" fill="#FF762B"/>
<path d="M521.175 384.137L518.373 383.065C517.99 382.919 517.794 382.48 517.941 382.097C518.087 381.714 518.527 381.518 518.91 381.665L521.712 382.736C522.095 382.883 522.291 383.322 522.144 383.705C521.997 384.088 521.558 384.284 521.175 384.137Z" fill="#FF762B"/>
</svg>
