<svg width="21" height="20" viewBox="0 0 21 20" fill="none" xmlns="http://www.w3.org/2000/svg">
<circle cx="10.5" cy="10" r="10" fill="#29C579"/>
<path d="M9.2487 5.83398C8.15703 5.83398 7.26953 6.72148 7.26953 7.81315C7.26953 8.88398 8.10703 9.75065 9.1987 9.78815C9.23203 9.78398 9.26536 9.78398 9.29036 9.78815C9.2987 9.78815 9.30286 9.78815 9.3112 9.78815C9.31536 9.78815 9.31536 9.78815 9.31953 9.78815C10.3862 9.75065 11.2237 8.88398 11.2279 7.81315C11.2279 6.72148 10.3404 5.83398 9.2487 5.83398Z" fill="white"/>
<path d="M11.3654 10.8957C10.2029 10.1207 8.3071 10.1207 7.13626 10.8957C6.6071 11.2499 6.31543 11.729 6.31543 12.2415C6.31543 12.754 6.6071 13.229 7.1321 13.579C7.71543 13.9707 8.4821 14.1665 9.24876 14.1665C10.0154 14.1665 10.7821 13.9707 11.3654 13.579C11.8904 13.2249 12.1821 12.7499 12.1821 12.2332C12.1779 11.7207 11.8904 11.2457 11.3654 10.8957Z" fill="white"/>
<path d="M13.8279 8.05756C13.8946 8.86589 13.3196 9.57423 12.5238 9.67006C12.5196 9.67006 12.5196 9.67006 12.5154 9.67006H12.5029C12.4779 9.67006 12.4529 9.67006 12.4321 9.67839C12.0279 9.69923 11.6571 9.57006 11.3779 9.33256C11.8071 8.94923 12.0529 8.37423 12.0029 7.74923C11.9738 7.41173 11.8571 7.10339 11.6821 6.84089C11.8404 6.76173 12.0238 6.71173 12.2113 6.69506C13.0279 6.62423 13.7571 7.23256 13.8279 8.05756Z" fill="white"/>
<path d="M14.6615 11.9133C14.6281 12.3175 14.3698 12.6675 13.9365 12.905C13.5198 13.1341 12.9948 13.2425 12.474 13.23C12.774 12.9591 12.949 12.6216 12.9823 12.2633C13.024 11.7466 12.7781 11.2508 12.2865 10.855C12.0073 10.6341 11.6823 10.4591 11.3281 10.33C12.249 10.0633 13.4073 10.2425 14.1198 10.8175C14.5031 11.1258 14.699 11.5133 14.6615 11.9133Z" fill="white"/>
</svg>
