<svg width="14" height="14" viewBox="0 0 14 14" fill="none" xmlns="http://www.w3.org/2000/svg">
<path d="M6.98177 1.16675C3.76177 1.16675 1.14844 3.78008 1.14844 7.00008C1.14844 10.2201 3.76177 12.8334 6.98177 12.8334C10.2018 12.8334 12.8151 10.2201 12.8151 7.00008C12.8151 3.78008 10.2076 1.16675 6.98177 1.16675ZM9.16927 7.20425L6.99927 9.67175L6.7426 9.96342C6.38677 10.3659 6.0951 10.2609 6.0951 9.71842V7.40841H5.10344C4.65427 7.40841 4.53177 7.13425 4.82927 6.79591L6.99927 4.32841L7.25594 4.03675C7.61177 3.63425 7.90344 3.73925 7.90344 4.28175V6.59175H8.8951C9.34427 6.59175 9.46677 6.86592 9.16927 7.20425Z" fill="#FF762B"/>
</svg>
