<svg width="22" height="22" viewBox="0 0 22 22" fill="none" xmlns="http://www.w3.org/2000/svg">
<rect x="1" y="1" width="20" height="20" rx="10" fill="white"/>
<rect x="1" y="1" width="20" height="20" rx="10" stroke="#1D1D28" stroke-opacity="0.08"/>
<path d="M15.1181 6H6.83203V6.42846L7.30291 6.47603C7.91461 6.57118 8.15032 6.95207 8.24412 7.85683C8.38576 9.57121 8.33846 12.6669 8.24412 14.1426C8.15005 15.0477 7.91489 15.4764 7.30291 15.5234L6.83203 15.6191V16H12.152V15.6191L11.587 15.5234C10.975 15.4761 10.7396 15.0477 10.6455 14.1426C10.5982 13.5233 10.5512 12.5231 10.5512 11.2853L11.6811 11.3329C12.3874 11.3329 12.7166 11.9044 12.858 12.7137H13.2819V9.33361H12.858C12.7164 10.1432 12.3874 10.7144 11.6811 10.7144L10.5515 10.7623C10.5515 9.14303 10.5985 7.61923 10.6458 6.71446H12.2933C13.5649 6.71446 14.2239 7.5238 14.6945 8.95273L15.1654 8.80972L15.1181 6Z" fill="#45484D"/>
</svg>
