<svg width="17" height="17" viewBox="0 0 17 17" fill="none" xmlns="http://www.w3.org/2000/svg">
<path d="M5.15625 1.78125L6.40625 4.78125C6.59375 5.34375 6.46875 5.82292 6.03125 6.21875L4.5 7.46875C5.02083 8.57292 5.70833 9.5625 6.5625 10.4375C7.4375 11.2917 8.42708 11.9792 9.53125 12.5L10.7812 10.9688C11.1771 10.5312 11.6562 10.4062 12.2188 10.5938L15.2188 11.8438C15.5312 11.9688 15.75 12.1667 15.875 12.4375C16 12.7292 16.0312 13.0312 15.9688 13.3438L15.2188 16.0938C15.0104 16.6562 14.6042 16.9583 14 17C11.3958 16.9792 9.04167 16.3438 6.9375 15.0938C4.83333 13.8438 3.15625 12.1667 1.90625 10.0625C0.65625 7.95833 0.0208333 5.60417 0 3C0.0416667 2.39583 0.34375 1.98958 0.90625 1.78125L3.65625 1.03125C3.96875 0.96875 4.27083 1 4.5625 1.125C4.83333 1.25 5.03125 1.46875 5.15625 1.78125Z" fill="#DEDEDE"/>
</svg>
