<svg width="104" height="104" viewBox="0 0 104 104" fill="none" xmlns="http://www.w3.org/2000/svg">
<path d="M36.3564 80.1264V36.0998C36.3564 34.3664 36.8764 32.6764 37.8298 31.2464L49.6598 13.6531C51.5231 10.8364 56.1598 8.84311 60.1031 10.3164C64.3498 11.7464 67.1664 16.5131 66.2564 20.7598L64.0031 34.9298C63.8298 36.2298 64.1764 37.3998 64.9131 38.3098C65.6498 39.1331 66.7331 39.6531 67.9031 39.6531H85.7131C89.1364 39.6531 92.0831 41.0398 93.8164 43.4664C95.4631 45.8064 95.7664 48.8398 94.6831 51.9164L84.0231 84.3731C82.6798 89.7464 76.8298 94.1231 71.0231 94.1231H54.1231C51.2198 94.1231 47.1464 93.1264 45.2831 91.2631L39.7364 86.9731C37.6131 85.3698 36.3564 82.8131 36.3564 80.1264Z" fill="#FF762B"/>
<path d="M22.5765 27.6412H18.1132C11.3965 27.6412 8.6665 30.2412 8.6665 36.6546V80.2479C8.6665 86.6612 11.3965 89.2612 18.1132 89.2612H22.5765C29.2932 89.2612 32.0232 86.6612 32.0232 80.2479V36.6546C32.0232 30.2412 29.2932 27.6412 22.5765 27.6412Z" fill="#FF762B"/>
</svg>
