<svg width="125" height="40" viewBox="0 0 125 40" fill="none" xmlns="http://www.w3.org/2000/svg">
<path d="M110.829 39C110.645 39 110.494 38.9352 110.377 38.8057C110.276 38.6762 110.243 38.5224 110.276 38.3443L112.741 27.2214H108.566C108.381 27.2214 108.231 27.1567 108.113 27.0271C108.013 26.8976 107.979 26.7438 108.013 26.5657L108.893 22.6557C108.926 22.4776 109.019 22.3238 109.169 22.1943C109.337 22.0648 109.513 22 109.698 22H124.436C124.62 22 124.762 22.0648 124.863 22.1943C124.98 22.3238 125.022 22.4776 124.989 22.6557L124.109 26.5657C124.075 26.7438 123.974 26.8976 123.807 27.0271C123.656 27.1567 123.488 27.2214 123.304 27.2214H119.129L116.664 38.3443C116.631 38.5224 116.53 38.6762 116.362 38.8057C116.211 38.9352 116.044 39 115.859 39H110.829Z" fill="#45484D"/>
<path d="M89.5324 39C89.3508 39 89.2105 38.9352 89.1114 38.8057C89.0124 38.6762 88.9794 38.5224 89.0124 38.3443L92.4052 22.6557C92.4382 22.4776 92.5373 22.3238 92.7024 22.1943C92.8675 22.0648 93.0408 22 93.2224 22H100.553C102.93 22 104.672 22.5262 105.778 23.5786C106.885 24.631 107.239 26.0719 106.843 27.9014C106.612 28.9862 106.158 29.9333 105.481 30.7429C104.804 31.5362 104.028 32.1757 103.153 32.6614L104.986 38.1986C105.002 38.2471 105.011 38.2876 105.011 38.32C105.027 38.3524 105.027 38.401 105.011 38.4657C104.978 38.6114 104.895 38.741 104.763 38.8543C104.631 38.9514 104.491 39 104.342 39H99.2651C98.9349 39 98.7038 38.919 98.5717 38.7571C98.4561 38.5952 98.3818 38.4576 98.3488 38.3443L97.2344 33.7057H96.219L95.2037 38.3443C95.1706 38.5224 95.0716 38.6762 94.9065 38.8057C94.7414 38.9352 94.568 39 94.3864 39H89.5324ZM97.2096 29.0914H99.0175C99.3972 29.0914 99.7109 28.97 99.9586 28.7271C100.206 28.4681 100.363 28.1767 100.429 27.8529C100.495 27.529 100.47 27.2295 100.355 26.9543C100.239 26.6629 99.9751 26.5171 99.5623 26.5171H97.7545L97.2096 29.0914Z" fill="#45484D"/>
<path d="M68.4558 39C68.2729 39 68.1399 38.9271 68.0567 38.7814C67.9735 38.6195 67.9819 38.4576 68.0816 38.2957L77.0124 22.8014C77.1122 22.6233 77.2702 22.4452 77.4864 22.2671C77.7026 22.089 77.977 22 78.3096 22H83.8477C84.1803 22 84.4131 22.089 84.5462 22.2671C84.6959 22.4452 84.779 22.6233 84.7957 22.8014L86.9909 38.2957C87.0242 38.5062 86.966 38.6762 86.8163 38.8057C86.6666 38.9352 86.5003 39 86.3174 39H81.827C81.5111 39 81.2949 38.9352 81.1784 38.8057C81.0787 38.66 81.0121 38.5224 80.9789 38.3929L80.7294 36.79H75.366L74.418 38.3929C74.3348 38.5224 74.2101 38.66 74.0438 38.8057C73.8941 38.9352 73.653 39 73.3204 39H68.4558ZM77.661 32.0543H80.4799L80.0559 27.5371L77.661 32.0543Z" fill="#45484D"/>
<path d="M56.8294 39C56.6449 39 56.494 38.9352 56.3767 38.8057C56.2761 38.6762 56.2425 38.5224 56.2761 38.3443L58.7408 27.2214H54.5659C54.3814 27.2214 54.2305 27.1567 54.1132 27.0271C54.0126 26.8976 53.979 26.7438 54.0126 26.5657L54.8928 22.6557C54.9264 22.4776 55.0186 22.3238 55.1695 22.1943C55.3371 22.0648 55.5132 22 55.6976 22H70.4355C70.62 22 70.7625 22.0648 70.8631 22.1943C70.9804 22.3238 71.0224 22.4776 70.9888 22.6557L70.1086 26.5657C70.075 26.7438 69.9744 26.8976 69.8068 27.0271C69.6559 27.1567 69.4882 27.2214 69.3038 27.2214H65.1289L62.6642 38.3443C62.6306 38.5224 62.53 38.6762 62.3624 38.8057C62.2115 38.9352 62.0438 39 61.8594 39H56.8294Z" fill="#45484D"/>
<path d="M42.8229 40C40.945 40 39.4001 39.75 38.188 39.25C36.976 38.75 36.1054 38.0917 35.5762 37.275C35.064 36.4583 34.8933 35.5917 35.064 34.675C35.0982 34.525 35.175 34.4 35.2945 34.3C35.431 34.1833 35.5762 34.125 35.7298 34.125H40.5951C40.8682 34.125 41.0645 34.1667 41.184 34.25C41.3206 34.3167 41.4657 34.4167 41.6193 34.55C41.7559 34.6667 41.901 34.775 42.0547 34.875C42.2254 34.9583 42.4217 35.025 42.6436 35.075C42.8655 35.1083 43.1131 35.125 43.3862 35.125C43.9666 35.125 44.4446 35.0667 44.8202 34.95C45.1957 34.8167 45.4091 34.6417 45.4604 34.425C45.5116 34.225 45.4518 34.0583 45.2811 33.925C45.1104 33.7917 44.7946 33.675 44.3337 33.575C43.8727 33.4583 43.2326 33.35 42.4132 33.25C41.0987 33.0667 39.9976 32.7333 39.1099 32.25C38.2222 31.75 37.5905 31.0917 37.215 30.275C36.8565 29.4583 36.8053 28.5 37.0613 27.4C37.4198 25.7 38.3417 24.375 39.8269 23.425C41.3121 22.475 43.2155 22 45.5372 22C46.698 22 47.7479 22.1667 48.6868 22.5C49.6428 22.8167 50.4537 23.2417 51.1194 23.775C51.8023 24.2917 52.3059 24.85 52.6302 25.45C52.9546 26.05 53.0656 26.625 52.9631 27.175C52.9461 27.325 52.8692 27.4583 52.7327 27.575C52.5961 27.675 52.4595 27.725 52.323 27.725H47.2016C46.9626 27.725 46.7748 27.6917 46.6383 27.625C46.5188 27.5583 46.3907 27.4583 46.2542 27.325C46.1859 27.2417 46.0493 27.15 45.8445 27.05C45.6396 26.9333 45.3579 26.875 44.9994 26.875C44.5727 26.875 44.2483 26.9417 44.0264 27.075C43.8045 27.1917 43.6679 27.3583 43.6167 27.575C43.5825 27.725 43.6252 27.8667 43.7447 28C43.8813 28.1333 44.1373 28.25 44.5129 28.35C44.9055 28.45 45.4774 28.55 46.2286 28.65C47.9015 28.85 49.1989 29.2 50.1208 29.7C51.0597 30.2 51.6828 30.85 51.9901 31.65C52.2974 32.4333 52.3315 33.3667 52.0925 34.45C51.6999 36.2667 50.7268 37.65 49.1733 38.6C47.6199 39.5333 45.503 40 42.8229 40Z" fill="#45484D"/>
<path d="M106.575 19C105.464 19 104.412 18.8583 103.419 18.575C102.443 18.2917 101.593 17.8667 100.869 17.3C100.162 16.7333 99.6404 16.0333 99.3038 15.2C98.984 14.35 98.9167 13.3667 99.1018 12.25C99.2197 11.5667 99.3627 10.8417 99.531 10.075C99.6994 9.30833 99.8677 8.56667 100.036 7.85C100.591 5.66667 101.61 3.98333 103.091 2.8C104.589 1.6 106.701 1 109.428 1C110.539 1 111.583 1.15 112.559 1.45C113.552 1.75 114.402 2.19167 115.109 2.775C115.833 3.35833 116.354 4.075 116.674 4.925C117.011 5.775 117.087 6.75 116.901 7.85C116.784 8.56667 116.641 9.30833 116.472 10.075C116.304 10.8417 116.136 11.5667 115.967 12.25C115.395 14.4833 114.368 16.1667 112.887 17.3C111.406 18.4333 109.302 19 106.575 19ZM107.131 14.125C107.686 14.125 108.166 13.9667 108.57 13.65C108.974 13.3167 109.26 12.8 109.428 12.1C109.613 11.3833 109.782 10.675 109.933 9.975C110.085 9.275 110.219 8.58333 110.337 7.9C110.472 7.2 110.396 6.69167 110.11 6.375C109.841 6.04167 109.437 5.875 108.898 5.875C108.359 5.875 107.888 6.04167 107.484 6.375C107.08 6.69167 106.786 7.2 106.6 7.9C106.432 8.58333 106.272 9.275 106.121 9.975C105.969 10.675 105.826 11.3833 105.691 12.1C105.574 12.8 105.641 13.3167 105.893 13.65C106.163 13.9667 106.575 14.125 107.131 14.125Z" fill="#45484D"/>
<path d="M85.8294 18C85.6449 18 85.494 17.9352 85.3767 17.8057C85.2761 17.6762 85.2425 17.5224 85.2761 17.3443L87.7408 6.22143H83.5659C83.3814 6.22143 83.2305 6.15667 83.1132 6.02714C83.0126 5.89762 82.979 5.74381 83.0126 5.56571L83.8928 1.65571C83.9264 1.47762 84.0186 1.32381 84.1695 1.19429C84.3371 1.06476 84.5132 1 84.6976 1H99.4355C99.62 1 99.7625 1.06476 99.8631 1.19429C99.9804 1.32381 100.022 1.47762 99.9888 1.65571L99.1086 5.56571C99.075 5.74381 98.9744 5.89762 98.8068 6.02714C98.6559 6.15667 98.4882 6.22143 98.3038 6.22143H94.1289L91.6642 17.3443C91.6306 17.5224 91.53 17.6762 91.3624 17.8057C91.2115 17.9352 91.0438 18 90.8594 18H85.8294Z" fill="#45484D"/>
<path d="M71.4954 19C70.4032 19 69.3623 18.8648 68.3725 18.5944C67.3827 18.307 66.521 17.8845 65.7872 17.3268C65.0704 16.7521 64.5585 16.0338 64.2513 15.1718C63.9442 14.293 63.9186 13.2535 64.1745 12.0535L66.4015 1.68451C66.4356 1.49859 66.5295 1.33803 66.6831 1.20282C66.8537 1.06761 67.0329 1 67.2206 1H72.2377C72.4254 1 72.5705 1.06761 72.6729 1.20282C72.7923 1.33803 72.835 1.49859 72.8009 1.68451L70.5739 11.9521C70.4374 12.5775 70.4886 13.0592 70.7275 13.3972C70.9834 13.7352 71.4271 13.9042 72.0585 13.9042C72.6899 13.9042 73.1933 13.7352 73.5688 13.3972C73.9613 13.0592 74.2258 12.5775 74.3623 11.9521L76.5893 1.68451C76.6234 1.49859 76.7173 1.33803 76.8708 1.20282C77.0415 1.06761 77.2207 1 77.4084 1H82.4255C82.6132 1 82.7582 1.06761 82.8606 1.20282C82.9801 1.33803 83.0228 1.49859 82.9886 1.68451L80.7616 12.0535C80.2497 14.4535 79.2514 16.2113 77.7667 17.3268C76.2821 18.4423 74.1916 19 71.4954 19Z" fill="#45484D"/>
<path d="M43.4558 18C43.2729 18 43.1399 17.9271 43.0567 17.7814C42.9735 17.6195 42.9819 17.4576 43.0816 17.2957L52.0124 1.80143C52.1122 1.62333 52.2702 1.44524 52.4864 1.26714C52.7026 1.08905 52.977 1 53.3096 1H58.8477C59.1803 1 59.4131 1.08905 59.5462 1.26714C59.6959 1.44524 59.779 1.62333 59.7957 1.80143L61.9909 17.2957C62.0242 17.5062 61.966 17.6762 61.8163 17.8057C61.6666 17.9352 61.5003 18 61.3174 18H56.827C56.5111 18 56.2949 17.9352 56.1784 17.8057C56.0787 17.66 56.0121 17.5224 55.9789 17.3929L55.7294 15.79H50.366L49.418 17.3929C49.3348 17.5224 49.2101 17.66 49.0438 17.8057C48.8941 17.9352 48.653 18 48.3204 18H43.4558ZM52.661 11.0543H55.4799L55.0559 6.53714L52.661 11.0543Z" fill="#45484D"/>
<path d="M27.0979 0H33L21.9021 19H16L27.0979 0Z" fill="#FF762B"/>
<path d="M21.3651 0H26L14.6349 19H10L21.3651 0Z" fill="#FF762B"/>
<path d="M16.2391 0H19L7.76096 19H5.00001L16.2391 0Z" fill="#FF762B"/>
<path d="M10.8758 0H12L1.12422 19H-8.81496e-06L10.8758 0Z" fill="#FF762B"/>
<path d="M36.169 0C40.0555 0 42.4561 4.23986 40.4565 7.57248L21 40L21 24.9751C21 22.9525 22.6396 21.3128 24.6622 21.3128H29.5471C30.2721 21.3128 30.8599 20.7251 30.8599 20C30.8599 19.2749 30.2721 18.6872 29.5471 18.6872H22.6378L33.6642 0H36.169Z" fill="#FF762B"/>
</svg>
