<svg width="219" height="40" viewBox="0 0 219 40" fill="none" xmlns="http://www.w3.org/2000/svg">
<g clip-path="url(#clip0_2035_72)">
<path d="M155.495 18V5.0281H147V0H170V5.0281H161.52V18H155.495Z" fill="#45484D"/>
<path d="M204.495 39V26.0281H196V21H219V26.0281H210.505V39H204.495Z" fill="#45484D"/>
<path d="M124 18V0H139.104C144.567 0 147 2.24628 147 6.48595C147 10.7256 144.582 12.9719 139.104 12.9719H130.259V18H124ZM130.259 8.33058H140.405V4.62645H130.259V8.33058Z" fill="#45484D"/>
<path d="M114.399 0L123 17.8661V18H116.235L114.672 14.5339H105.116L103.553 18H97V17.8661L105.525 0H114.399ZM106.996 10.4281H112.776L109.97 4.23967H109.803L106.996 10.4281Z" fill="#45484D"/>
<path d="M75 13.1803L74.8202 18.5512C71.2534 18.8654 66.8025 19 63.7902 19C55.8474 19 53 16.337 53 9.5C53 2.66299 55.8474 0 63.7902 0C66.6676 0 70.9836 0.134646 74.6853 0.448819V5.50551L59.6989 4.57795V14.422L75 13.1803Z" fill="#45484D"/>
<path d="M84.4946 18V5.0281H76V0H99V5.0281H90.5054V18H84.4946Z" fill="#45484D"/>
<path d="M97 39V21H119V39H112.908V26.0281H103.107V39H97Z" fill="#45484D"/>
<path d="M120 30.5C120 23.5283 123.471 21 133 21C142.529 21 146 23.5283 146 30.5C146 37.4717 142.529 40 133 40C123.471 40 120 37.4717 120 30.5ZM139.18 34.674V26.311H133C130.838 26.311 128.905 26.311 126.82 26.311V34.674H133H139.18Z" fill="#45484D"/>
<path d="M147 39V21H153.013V34.7603H153.193L160.605 21H170V39H163.987V25.2397H163.807L156.395 39H147Z" fill="#45484D"/>
<path d="M188.778 21H195V39H188.778V32.3504H178.222V39H172V21H178.222V27.3223H188.778V21Z" fill="#45484D"/>
<path d="M21 31C5.59495 31 0 26.8767 0 15.5C0 4.1233 5.59495 0 21 0V8.68301C17.4975 8.68301 14.3892 8.68301 11.0231 8.68301V22.317H21V31Z" fill="#FF762B"/>
<path d="M20 8C35.4051 8 41 12.1233 41 23.5C41 34.8767 35.4051 39 20 39V30.317C23.5025 30.317 26.6108 30.317 29.9769 30.317V16.683H20V8Z" fill="#FF762B"/>
</g>
<defs>
<clipPath id="clip0_2035_72">
<rect width="219" height="40" fill="white"/>
</clipPath>
</defs>
</svg>
