<svg width="219" height="41" viewBox="0 0 219 41" fill="none" xmlns="http://www.w3.org/2000/svg">
<g clip-path="url(#clip0_1809_16491)">
<path d="M155.495 18.2588V5.28689H147V0.258789H170V5.28689H161.52V18.2588H155.495Z" fill="white"/>
<path d="M204.495 39.2588V26.2869H196V21.2588H219V26.2869H210.505V39.2588H204.495Z" fill="white"/>
<path d="M124 18.2588V0.258789H139.104C144.567 0.258789 147 2.50507 147 6.74474C147 10.9844 144.582 13.2307 139.104 13.2307H130.259V18.2588H124ZM130.259 8.58937H140.405V4.88524H130.259V8.58937Z" fill="white"/>
<path d="M114.399 0.258789L123 18.1249V18.2588H116.235L114.672 14.7927H105.116L103.553 18.2588H97V18.1249L105.525 0.258789H114.399ZM106.996 10.6869H112.776L109.97 4.49846H109.803L106.996 10.6869Z" fill="white"/>
<path d="M75 13.4391L74.8202 18.81C71.2534 19.1241 66.8025 19.2588 63.7902 19.2588C55.8474 19.2588 53 16.5958 53 9.75879C53 2.92178 55.8474 0.258789 63.7902 0.258789C66.6676 0.258789 70.9836 0.393435 74.6853 0.707608V5.7643L59.6989 4.83674V14.6808L75 13.4391Z" fill="white"/>
<path d="M84.4946 18.2588V5.28689H76V0.258789H99V5.28689H90.5054V18.2588H84.4946Z" fill="white"/>
<path d="M97 39.2588V21.2588H119V39.2588H112.908V26.2869H103.107V39.2588H97Z" fill="white"/>
<path d="M120 30.7588C120 23.7871 123.471 21.2588 133 21.2588C142.529 21.2588 146 23.7871 146 30.7588C146 37.7304 142.529 40.2588 133 40.2588C123.471 40.2588 120 37.7304 120 30.7588ZM139.18 34.9328V26.5698H133C130.838 26.5698 128.905 26.5698 126.82 26.5698V34.9328H133H139.18Z" fill="white"/>
<path d="M147 39.2588V21.2588H153.013V35.0191H153.193L160.605 21.2588H170V39.2588H163.987V25.4985H163.807L156.395 39.2588H147Z" fill="white"/>
<path d="M188.778 21.2588H195V39.2588H188.778V32.6092H178.222V39.2588H172V21.2588H178.222V27.5811H188.778V21.2588Z" fill="white"/>
<path d="M21 31.2588C5.59495 31.2588 0 27.1355 0 15.7588C0 4.38209 5.59495 0.258789 21 0.258789V8.9418C17.4975 8.9418 14.3892 8.9418 11.0231 8.9418V22.5758H21V31.2588Z" fill="#FF762B"/>
<path d="M20 8.25879C35.4051 8.25879 41 12.3821 41 23.7588C41 35.1355 35.4051 39.2588 20 39.2588V30.5758C23.5025 30.5758 26.6108 30.5758 29.9769 30.5758V16.9418H20V8.25879Z" fill="#FF762B"/>
</g>
<defs>
<clipPath id="clip0_1809_16491">
<rect width="219" height="40" fill="white" transform="translate(0 0.258789)"/>
</clipPath>
</defs>
</svg>
