<svg width="69" height="83" viewBox="0 0 69 83" fill="none" xmlns="http://www.w3.org/2000/svg">
<g clip-path="url(#clip0_1777_101940)">
<g filter="url(#filter0_d_1777_101940)">
<path d="M69 34.3385C69 53.3031 47.8548 63.1385 33.3871 72C20.5887 63.6923 0 53.3031 0 34.3385C0 15.3739 15.4462 0 34.5 0C53.5538 0 69 15.3739 69 34.3385Z" fill="#45484D"/>
</g>
<g filter="url(#filter1_d_1777_101940)">
<circle cx="34.5" cy="79.5" r="3.5" fill="#45484D"/>
</g>
<g clip-path="url(#clip1_1777_101940)">
<path d="M47.5385 35.04V31.4079H45.16V30H51.6V31.4079H49.2256V35.04H47.5385Z" fill="white"/>
<path d="M61.2585 40.92V37.2879H58.88V35.88H65.32V37.2879H62.9415V40.92H61.2585Z" fill="white"/>
<path d="M38.72 35.04V30H42.9491C44.4787 30 45.16 30.629 45.16 31.8161C45.16 33.0032 44.483 33.6321 42.9491 33.6321H40.4725V35.04H38.72ZM40.4725 32.3326H43.3133V31.2954H40.4725V32.3326Z" fill="white"/>
<path d="M36.0317 30L38.44 35.0025V35.04H36.5457L36.1082 34.0695H33.4323L32.9949 35.04H31.16V35.0025L33.547 30H36.0317ZM33.959 32.9199H35.5773L34.7915 31.1871H34.7448L33.959 32.9199Z" fill="white"/>
<path d="M25 33.6905L24.9496 35.1943C23.9509 35.2823 22.7047 35.32 21.8612 35.32C19.6373 35.32 18.84 34.5744 18.84 32.66C18.84 30.7456 19.6373 30 21.8612 30C22.6669 30 23.8754 30.0377 24.9119 30.1257V31.5415L20.7157 31.2818V34.0382L25 33.6905Z" fill="white"/>
<path d="M27.6585 35.04V31.4079H25.28V30H31.72V31.4079H29.3415V35.04H27.6585Z" fill="white"/>
<path d="M31.16 40.92V35.88H37.32V40.92H35.6142V37.2879H32.87V40.92H31.16Z" fill="white"/>
<path d="M37.6 38.54C37.6 36.5879 38.5718 35.88 41.24 35.88C43.9082 35.88 44.88 36.5879 44.88 38.54C44.88 40.4921 43.9082 41.2 41.24 41.2C38.5718 41.2 37.6 40.4921 37.6 38.54ZM42.9705 39.7087V37.3671H41.24C40.6348 37.3671 40.0934 37.3671 39.5095 37.3671V39.7087H41.24H42.9705Z" fill="white"/>
<path d="M45.16 40.92V35.88H46.8437V39.7329H46.8942L48.9693 35.88H51.6V40.92H49.9163V37.0671H49.8658L47.7907 40.92H45.16Z" fill="white"/>
<path d="M56.858 35.88H58.6V40.92H56.858V39.0581H53.902V40.92H52.16V35.88H53.902V37.6503H56.858V35.88Z" fill="white"/>
<path d="M9.88 38.68C5.56659 38.68 4 37.5255 4 34.34C4 31.1545 5.56659 30 9.88 30V32.4312C8.89929 32.4312 8.02897 32.4312 7.08647 32.4312V36.2488H9.88V38.68Z" fill="#FF762B"/>
<path d="M9.6 32.24C13.9134 32.24 15.48 33.3945 15.48 36.58C15.48 39.7655 13.9134 40.92 9.6 40.92V38.4887C10.5807 38.4887 11.451 38.4887 12.3935 38.4887V34.6712H9.6V32.24Z" fill="#FF762B"/>
</g>
</g>
<defs>
<filter id="filter0_d_1777_101940" x="-37.729" y="-26.6323" width="144.458" height="147.458" filterUnits="userSpaceOnUse" color-interpolation-filters="sRGB">
<feFlood flood-opacity="0" result="BackgroundImageFix"/>
<feColorMatrix in="SourceAlpha" type="matrix" values="0 0 0 0 0 0 0 0 0 0 0 0 0 0 0 0 0 0 127 0" result="hardAlpha"/>
<feOffset dy="11.0968"/>
<feGaussianBlur stdDeviation="18.8645"/>
<feComposite in2="hardAlpha" operator="out"/>
<feColorMatrix type="matrix" values="0 0 0 0 0 0 0 0 0 0.101961 0 0 0 0 0.203922 0 0 0 0.08 0"/>
<feBlend mode="normal" in2="BackgroundImageFix" result="effect1_dropShadow_1777_101940"/>
<feBlend mode="normal" in="SourceGraphic" in2="effect1_dropShadow_1777_101940" result="shape"/>
</filter>
<filter id="filter1_d_1777_101940" x="-6.72903" y="49.3677" width="82.4581" height="82.4581" filterUnits="userSpaceOnUse" color-interpolation-filters="sRGB">
<feFlood flood-opacity="0" result="BackgroundImageFix"/>
<feColorMatrix in="SourceAlpha" type="matrix" values="0 0 0 0 0 0 0 0 0 0 0 0 0 0 0 0 0 0 127 0" result="hardAlpha"/>
<feOffset dy="11.0968"/>
<feGaussianBlur stdDeviation="18.8645"/>
<feComposite in2="hardAlpha" operator="out"/>
<feColorMatrix type="matrix" values="0 0 0 0 0 0 0 0 0 0.101961 0 0 0 0 0.203922 0 0 0 0.08 0"/>
<feBlend mode="normal" in2="BackgroundImageFix" result="effect1_dropShadow_1777_101940"/>
<feBlend mode="normal" in="SourceGraphic" in2="effect1_dropShadow_1777_101940" result="shape"/>
</filter>
<clipPath id="clip0_1777_101940">
<rect width="69" height="83" fill="white"/>
</clipPath>
<clipPath id="clip1_1777_101940">
<rect width="61" height="11" fill="white" transform="translate(4 30)"/>
</clipPath>
</defs>
</svg>
