<svg width="20" height="20" viewBox="0 0 20 20" fill="none" xmlns="http://www.w3.org/2000/svg">
<path d="M14.6166 7.34166C15.9789 7.34166 17.0832 6.23729 17.0832 4.87499C17.0832 3.51269 15.9789 2.40833 14.6166 2.40833C13.2543 2.40833 12.1499 3.51269 12.1499 4.87499C12.1499 6.23729 13.2543 7.34166 14.6166 7.34166Z" fill="white"/>
<path d="M5.38341 7.34166C6.74572 7.34166 7.85008 6.23729 7.85008 4.87499C7.85008 3.51269 6.74572 2.40833 5.38341 2.40833C4.02111 2.40833 2.91675 3.51269 2.91675 4.87499C2.91675 6.23729 4.02111 7.34166 5.38341 7.34166Z" fill="white"/>
<path d="M14.6166 17.5917C15.9789 17.5917 17.0832 16.4873 17.0832 15.125C17.0832 13.7627 15.9789 12.6583 14.6166 12.6583C13.2543 12.6583 12.1499 13.7627 12.1499 15.125C12.1499 16.4873 13.2543 17.5917 14.6166 17.5917Z" fill="white"/>
<path d="M5.38341 17.5917C6.74572 17.5917 7.85008 16.4873 7.85008 15.125C7.85008 13.7627 6.74572 12.6583 5.38341 12.6583C4.02111 12.6583 2.91675 13.7627 2.91675 15.125C2.91675 16.4873 4.02111 17.5917 5.38341 17.5917Z" fill="white"/>
</svg>
