<svg width="16" height="16" viewBox="0 0 16 16" fill="none" xmlns="http://www.w3.org/2000/svg">
<path d="M8 0C3.584 0 0 3.584 0 8C0 12.416 3.584 16 8 16C12.416 16 16 12.416 16 8C16 3.584 12.416 0 8 0ZM5.384 4.528C6.032 4.528 6.568 5.056 6.568 5.712C6.568 6.36 6.04 6.896 5.384 6.896C4.736 6.896 4.2 6.368 4.2 5.712C4.2 5.056 4.728 4.528 5.384 4.528ZM5.48 11.04C5.36 11.16 5.208 11.216 5.056 11.216C4.904 11.216 4.752 11.16 4.632 11.04C4.4 10.808 4.4 10.424 4.632 10.192L9.872 4.952C10.104 4.72 10.488 4.72 10.72 4.952C10.952 5.184 10.952 5.568 10.72 5.8L5.48 11.04ZM10.616 11.472C9.968 11.472 9.432 10.944 9.432 10.288C9.432 9.64 9.96 9.104 10.616 9.104C11.264 9.104 11.8 9.632 11.8 10.288C11.8 10.944 11.272 11.472 10.616 11.472Z" fill="#32C77F"/>
</svg>
