<svg width="25" height="24" viewBox="0 0 25 24" fill="none" xmlns="http://www.w3.org/2000/svg">
<path d="M2.10001 12.6104H19.1" stroke="#45484D" stroke-width="1.5" stroke-miterlimit="10" stroke-linecap="round" stroke-linejoin="round"/>
<path d="M19.1 10.2798V17.4298C19.07 20.2798 18.29 20.9998 15.32 20.9998H5.88004C2.86004 20.9998 2.10001 20.2498 2.10001 17.2698V10.2798C2.10001 7.5798 2.73001 6.70981 5.10001 6.56981C5.34001 6.55981 5.60004 6.5498 5.88004 6.5498H15.32C18.34 6.5498 19.1 7.2998 19.1 10.2798Z" stroke="#45484D" stroke-width="1.5" stroke-linecap="round" stroke-linejoin="round"/>
<path d="M22.1 6.73V13.72C22.1 16.42 21.47 17.29 19.1 17.43V10.28C19.1 7.3 18.34 6.55 15.32 6.55H5.88004C5.60004 6.55 5.34001 6.56 5.10001 6.57C5.13001 3.72 5.91004 3 8.88004 3H18.32C21.34 3 22.1 3.75 22.1 6.73Z" stroke="#45484D" stroke-width="1.5" stroke-linecap="round" stroke-linejoin="round"/>
<path d="M5.35001 17.8096H7.06998" stroke="#45484D" stroke-width="1.5" stroke-miterlimit="10" stroke-linecap="round" stroke-linejoin="round"/>
<path d="M9.20987 17.8096H12.6499" stroke="#45484D" stroke-width="1.5" stroke-miterlimit="10" stroke-linecap="round" stroke-linejoin="round"/>
</svg>
