<svg width="25" height="24" viewBox="0 0 25 24" fill="none" xmlns="http://www.w3.org/2000/svg">
<path d="M18.9405 13.549C18.5205 13.959 18.2805 14.549 18.3405 15.179C18.4305 16.259 19.4205 17.049 20.5005 17.049H22.4005V18.239C22.4005 20.309 20.7105 21.999 18.6405 21.999H7.16051C5.09051 21.999 3.40051 20.309 3.40051 18.239V11.509C3.40051 9.43903 5.09051 7.74902 7.16051 7.74902H18.6405C20.7105 7.74902 22.4005 9.43903 22.4005 11.509V12.949H20.3805C19.8205 12.949 19.3105 13.169 18.9405 13.549Z" stroke="#45484D" stroke-width="1.5" stroke-linecap="round" stroke-linejoin="round"/>
<path d="M3.40051 12.4093V7.83937C3.40051 6.64937 4.13051 5.58933 5.24051 5.16933L13.1805 2.16933C14.4205 1.69933 15.7505 2.61936 15.7505 3.94936V7.74934" stroke="#45484D" stroke-width="1.5" stroke-linecap="round" stroke-linejoin="round"/>
<path d="M23.4583 13.9702V16.0302C23.4583 16.5802 23.0183 17.0302 22.4583 17.0502H20.4983C19.4183 17.0502 18.4283 16.2602 18.3383 15.1802C18.2783 14.5502 18.5183 13.9602 18.9383 13.5502C19.3083 13.1702 19.8183 12.9502 20.3783 12.9502H22.4583C23.0183 12.9702 23.4583 13.4202 23.4583 13.9702Z" stroke="#45484D" stroke-width="1.5" stroke-linecap="round" stroke-linejoin="round"/>
<path d="M7.89954 12H14.8995" stroke="#45484D" stroke-width="1.5" stroke-linecap="round" stroke-linejoin="round"/>
</svg>
