<svg width="23" height="26" viewBox="0 0 23 26" fill="none" xmlns="http://www.w3.org/2000/svg">
<g clip-path="url(#clip0_1497_95366)">
<path d="M0.698853 5.755L3.96114 11.3108V14.6996L0.702669 20.2445L0.698853 5.755Z" fill="#5B57A2"/>
<path d="M13.2253 9.28787L16.2822 7.50275L22.5383 7.49719L13.2253 12.933V9.28787Z" fill="#D90751"/>
<path d="M13.2075 5.71921L13.2248 13.0749L9.95486 11.1605V0.165161L13.2075 5.71921Z" fill="#FAB718"/>
<path d="M22.5378 7.49535L16.2814 7.50091L13.2075 5.71921L9.95486 0.165161L22.5378 7.49535Z" fill="#FF762B"/>
<path d="M13.2248 20.2759V16.7072L9.95486 14.8292L9.95666 25.8355L13.2248 20.2759Z" fill="#63B22F"/>
<path d="M16.274 18.5064L3.96092 11.3108L0.698853 5.755L22.5245 18.4991L16.274 18.5064Z" fill="#1487C9"/>
<path d="M9.95779 25.8368L13.2255 20.2772L16.2747 18.5084L22.5252 18.5011L9.95779 25.8368Z" fill="#017F36"/>
<path d="M0.702911 20.2443L9.98176 14.8286L6.86225 13.005L3.96138 14.6994L0.702911 20.2443Z" fill="#984995"/>
</g>
<defs>
<clipPath id="clip0_1497_95366">
<rect width="22" height="25.6667" fill="white" transform="translate(0.699982 0.166626)"/>
</clipPath>
</defs>
</svg>
