<svg width="11" height="15" viewBox="0 0 11 15" fill="none" xmlns="http://www.w3.org/2000/svg">
<path d="M4 1.82714C4 0.960964 4.70217 0.258789 5.56835 0.258789H7.43165C8.29783 0.258789 9 0.960964 9 1.82714V5.25879H4V1.82714Z" fill="white" fill-opacity="0.5"/>
<path d="M0 6.92232C0 6.55586 0.297074 6.25879 0.663533 6.25879H9.43165C10.2978 6.25879 11 6.96096 11 7.82714V9.25879H0V6.92232Z" fill="white" fill-opacity="0.5"/>
<path d="M0 6.41511V9.25879H4.6615C7.05759 9.25879 9 7.31638 9 4.92029V1.25879C8.62147 3.33667 6.81145 4.84676 4.69936 4.84676H1.56835C0.702177 4.84676 2.3387e-06 5.54893 0 6.41511Z" fill="#EFEEFF"/>
<path d="M2.75667e-06 9.32077L0 12.6904C0 13.5566 0.702175 14.2588 1.56835 14.2588L6.14428 14.2588C8.82602 14.2588 11 12.0848 11 9.40307V7.25879C10.6145 8.4859 9.47708 9.32077 8.19084 9.32077L2.75667e-06 9.32077Z" fill="white"/>
</svg>
