<svg width="15" height="17" viewBox="0 0 15 17" fill="none" xmlns="http://www.w3.org/2000/svg">
<path d="M11.6099 0.403501C8.88744 -0.1345 6.06021 -0.1345 3.3377 0.403501C2.13351 0.672502 0.615183 2.17891 0.353403 3.36251C-0.117801 5.67592 -0.117801 8.04313 0.353403 10.3565C0.667539 11.5401 2.18586 13.0465 3.3377 13.3155C3.39005 13.3155 3.44241 13.3693 3.44241 13.4231V16.8126C3.44241 16.974 3.65183 17.0816 3.75655 16.9202L5.32723 15.2524C5.32723 15.2524 6.58377 13.9073 6.79319 13.6921C6.79319 13.6921 6.84555 13.6383 6.89791 13.6383C8.46859 13.6921 10.0916 13.5307 11.6623 13.2617C12.8665 12.9927 14.3848 11.4863 14.6466 10.3027C15.1178 7.98933 15.1178 5.62212 14.6466 3.30871C14.3325 2.17891 12.8141 0.672502 11.6099 0.403501ZM11.6623 10.5179C11.4005 11.0559 11.0864 11.4863 10.5628 11.7553C10.4058 11.8091 10.2487 11.8629 10.0916 11.9167C9.8822 11.8629 9.72513 11.8091 9.56806 11.7553C7.89267 11.0559 6.32199 10.0875 5.06545 8.68873C4.38482 7.88173 3.8089 6.96712 3.3377 5.99872C3.12827 5.51452 2.91885 5.08412 2.76178 4.59992C2.60471 4.16951 2.86649 3.73911 3.12827 3.41631C3.39005 3.09351 3.70419 2.87831 4.07068 2.71691C4.33246 2.55551 4.59424 2.66311 4.80367 2.87831C5.22251 3.41631 5.64136 3.95431 5.9555 4.54612C6.16492 4.92272 6.11256 5.35312 5.74607 5.62212C5.64136 5.67592 5.589 5.72972 5.48429 5.83732C5.43194 5.89112 5.32722 5.94492 5.27487 6.05252C5.17015 6.21392 5.17016 6.37532 5.22251 6.53672C5.64136 7.77413 6.4267 8.74253 7.63089 9.28053C7.84031 9.38813 7.99738 9.44193 8.25916 9.44193C8.62566 9.38813 8.78272 8.95773 9.0445 8.74253C9.30628 8.52733 9.62042 8.52733 9.93455 8.68873C10.1963 8.85013 10.4581 9.06533 10.7722 9.28053C11.034 9.49573 11.2958 9.65713 11.5576 9.87234C11.7147 9.97994 11.767 10.2489 11.6623 10.5179ZM9.46335 6.48292C9.35864 6.48292 9.41099 6.48292 9.46335 6.48292C9.25392 6.48292 9.20157 6.37532 9.14921 6.21392C9.14921 6.10632 9.14921 5.94492 9.09686 5.83732C9.0445 5.62212 8.93979 5.40692 8.73037 5.24552C8.62566 5.19172 8.52094 5.13792 8.41623 5.08412C8.25916 5.03032 8.15445 5.03032 7.99738 5.03032C7.84031 4.97652 7.78796 4.86892 7.78796 4.70752C7.78796 4.59992 7.94503 4.49232 8.04974 4.49232C8.88743 4.54612 9.51571 5.03032 9.62042 6.05252C9.62042 6.10632 9.62042 6.21392 9.62042 6.26772C9.62042 6.37532 9.56806 6.48292 9.46335 6.48292ZM8.93979 4.11571C8.67801 4.00811 8.41623 3.90051 8.10209 3.84671C7.99738 3.84671 7.84031 3.79291 7.7356 3.79291C7.57853 3.79291 7.47382 3.68531 7.52618 3.52391C7.52618 3.36251 7.63089 3.25491 7.78796 3.30871C8.31152 3.36251 8.78272 3.47011 9.25393 3.68531C10.1963 4.16951 10.7199 4.97652 10.877 6.05252C10.877 6.10632 10.877 6.16012 10.877 6.21392C10.877 6.32152 10.877 6.42912 10.877 6.59052C10.877 6.64432 10.877 6.69812 10.877 6.75192C10.8246 6.96712 10.4581 7.02093 10.4058 6.75192C10.4058 6.69812 10.3534 6.59052 10.3534 6.53672C10.3534 6.05252 10.2487 5.56832 10.0393 5.13792C9.72513 4.65372 9.35864 4.33091 8.93979 4.11571ZM11.767 7.34373C11.6099 7.34373 11.5052 7.18233 11.5052 7.02093C11.5052 6.69812 11.4529 6.37532 11.4005 6.05252C11.1911 4.33091 9.82984 2.93211 8.20681 2.66311C7.94503 2.60931 7.68325 2.60931 7.47382 2.55551C7.31675 2.55551 7.10733 2.55551 7.05497 2.34031C7.00262 2.17891 7.15968 2.01751 7.31675 2.01751C7.36911 2.01751 7.42147 2.01751 7.42147 2.01751C7.52618 2.01751 9.56806 2.07131 7.42147 2.01751C9.62042 2.07131 11.4529 3.57771 11.8194 5.83732C11.8717 6.21392 11.9241 6.59052 11.9241 7.02093C12.0288 7.18233 11.9241 7.34373 11.767 7.34373Z" fill="#FF762B"/>
</svg>
