<svg width="16" height="10" viewBox="0 0 16 10" fill="none" xmlns="http://www.w3.org/2000/svg">
<path fill-rule="evenodd" clip-rule="evenodd" d="M1.64545 9.70454C1.36016 9.62718 1.09987 9.48953 0.886514 9.30324C0.673163 9.11695 0.51302 8.88746 0.419598 8.63415C-0.114239 7.32491 -0.272414 1.85795 0.755718 0.778716C1.0979 0.427633 1.58101 0.211479 2.1002 0.177173C4.85836 -0.0882136 13.38 -0.0528284 14.3587 0.265635C14.634 0.345549 14.8855 0.480171 15.0943 0.659415C15.3032 0.838659 15.464 1.05788 15.5648 1.30064C16.148 2.65411 16.1678 7.57261 15.4857 8.873C15.3047 9.2115 15.0018 9.48569 14.6256 9.65147C13.5975 10.1115 3.0097 10.1026 1.64545 9.70454ZM6.02489 7.13914L10.9678 4.83913L6.02489 2.52142V7.13914Z" fill="#FF762B"/>
</svg>
