<svg width="16" height="11" viewBox="0 0 16 11" fill="none" xmlns="http://www.w3.org/2000/svg">
<path fill-rule="evenodd" clip-rule="evenodd" d="M1.64545 9.96333C1.36016 9.88596 1.09987 9.74832 0.886514 9.56203C0.673163 9.37573 0.51302 9.14625 0.419598 8.89294C-0.114239 7.5837 -0.272414 2.11674 0.755718 1.0375C1.0979 0.686422 1.58101 0.470268 2.1002 0.435962C4.85836 0.170575 13.38 0.205961 14.3587 0.524424C14.634 0.604338 14.8855 0.73896 15.0943 0.918204C15.3032 1.09745 15.464 1.31667 15.5648 1.55943C16.148 2.9129 16.1678 7.8314 15.4857 9.13179C15.3047 9.47029 15.0018 9.74448 14.6256 9.91025C13.5975 10.3703 3.0097 10.3614 1.64545 9.96333ZM6.02489 7.39793L10.9678 5.09792L6.02489 2.78021V7.39793Z" fill="#FF762B"/>
</svg>
