<svg width="15" height="18" viewBox="0 0 15 18" fill="none" xmlns="http://www.w3.org/2000/svg">
<path d="M11.61 0.66229C8.88744 0.124289 6.06021 0.124289 3.3377 0.66229C2.13351 0.931291 0.615183 2.4377 0.353403 3.6213C-0.117801 5.93471 -0.117801 8.30192 0.353403 10.6153C0.667539 11.7989 2.18586 13.3053 3.3377 13.5743C3.39005 13.5743 3.44241 13.6281 3.44241 13.6819V17.0713C3.44241 17.2327 3.65183 17.3403 3.75655 17.1789L5.32723 15.5111C5.32723 15.5111 6.58377 14.1661 6.79319 13.9509C6.79319 13.9509 6.84555 13.8971 6.89791 13.8971C8.46859 13.9509 10.0916 13.7895 11.6623 13.5205C12.8665 13.2515 14.3848 11.7451 14.6466 10.5615C15.1178 8.24812 15.1178 5.88091 14.6466 3.5675C14.3325 2.4377 12.8141 0.931291 11.61 0.66229ZM11.6623 10.7767C11.4005 11.3147 11.0864 11.7451 10.5628 12.0141C10.4058 12.0679 10.2487 12.1217 10.0916 12.1755C9.8822 12.1217 9.72513 12.0679 9.56806 12.0141C7.89267 11.3147 6.32199 10.3463 5.06545 8.94752C4.38482 8.14052 3.8089 7.22591 3.3377 6.25751C3.12827 5.77331 2.91885 5.34291 2.76178 4.85871C2.60471 4.4283 2.86649 3.9979 3.12827 3.6751C3.39005 3.3523 3.70419 3.1371 4.07068 2.9757C4.33246 2.8143 4.59424 2.9219 4.80367 3.1371C5.22251 3.6751 5.64136 4.2131 5.9555 4.8049C6.16492 5.18151 6.11256 5.61191 5.74607 5.88091C5.64136 5.93471 5.589 5.98851 5.48429 6.09611C5.43194 6.14991 5.32722 6.20371 5.27487 6.31131C5.17016 6.47271 5.17016 6.63411 5.22251 6.79551C5.64136 8.03292 6.4267 9.00132 7.63089 9.53932C7.84031 9.64692 7.99738 9.70072 8.25916 9.70072C8.62566 9.64692 8.78272 9.21652 9.0445 9.00132C9.30628 8.78612 9.62042 8.78612 9.93456 8.94752C10.1963 9.10892 10.4581 9.32412 10.7723 9.53932C11.034 9.75452 11.2958 9.91592 11.5576 10.1311C11.7147 10.2387 11.767 10.5077 11.6623 10.7767ZM9.46335 6.74171C9.35864 6.74171 9.41099 6.74171 9.46335 6.74171C9.25393 6.74171 9.20157 6.63411 9.14921 6.47271C9.14921 6.36511 9.14921 6.20371 9.09686 6.09611C9.0445 5.88091 8.93979 5.66571 8.73037 5.50431C8.62566 5.45051 8.52094 5.39671 8.41623 5.34291C8.25916 5.28911 8.15445 5.28911 7.99738 5.28911C7.84032 5.23531 7.78796 5.12771 7.78796 4.96631C7.78796 4.85871 7.94503 4.75111 8.04974 4.75111C8.88744 4.80491 9.51571 5.28911 9.62042 6.31131C9.62042 6.36511 9.62042 6.47271 9.62042 6.52651C9.62042 6.63411 9.56806 6.74171 9.46335 6.74171ZM8.93979 4.3745C8.67801 4.2669 8.41623 4.1593 8.10209 4.1055C7.99738 4.1055 7.84032 4.0517 7.7356 4.0517C7.57854 4.0517 7.47382 3.9441 7.52618 3.7827C7.52618 3.6213 7.63089 3.5137 7.78796 3.5675C8.31152 3.6213 8.78272 3.7289 9.25393 3.9441C10.1963 4.4283 10.7199 5.23531 10.877 6.31131C10.877 6.36511 10.877 6.41891 10.877 6.47271C10.877 6.58031 10.877 6.68791 10.877 6.84931C10.877 6.90311 10.877 6.95691 10.877 7.01071C10.8246 7.22591 10.4581 7.27971 10.4058 7.01071C10.4058 6.95691 10.3534 6.84931 10.3534 6.79551C10.3534 6.31131 10.2487 5.82711 10.0393 5.39671C9.72513 4.9125 9.35864 4.5897 8.93979 4.3745ZM11.767 7.60251C11.6099 7.60251 11.5052 7.44112 11.5052 7.27971C11.5052 6.95691 11.4529 6.63411 11.4005 6.31131C11.1911 4.5897 9.82985 3.1909 8.20681 2.9219C7.94503 2.8681 7.68325 2.8681 7.47382 2.8143C7.31676 2.8143 7.10733 2.8143 7.05497 2.5991C7.00262 2.4377 7.15969 2.2763 7.31675 2.2763C7.36911 2.2763 7.42147 2.2763 7.42147 2.2763C7.52618 2.2763 9.56807 2.3301 7.42147 2.2763C9.62042 2.3301 11.4529 3.8365 11.8194 6.09611C11.8717 6.47271 11.9241 6.84931 11.9241 7.27971C12.0288 7.44112 11.9241 7.60251 11.767 7.60251Z" fill="#FF762B"/>
</svg>
