<svg width="15" height="16" viewBox="0 0 15 16" fill="none" xmlns="http://www.w3.org/2000/svg">
<path d="M12.8049 2.44629C11.3937 1.04004 9.51219 0.258789 7.52613 0.258789C3.39721 0.258789 0.052264 3.59212 0.052264 7.70671C0.052264 9.00879 0.418118 10.3109 1.0453 11.4046L0 15.2588L3.97213 14.2171C5.06969 14.79 6.27178 15.1025 7.52613 15.1025C11.6551 15.1025 15 11.7692 15 7.65462C14.9477 5.72754 14.216 3.85254 12.8049 2.44629ZM11.1324 10.363C10.9756 10.7796 10.2439 11.1963 9.87805 11.2484C9.56446 11.3005 9.14634 11.3005 8.72822 11.1963C8.4669 11.0921 8.10105 10.988 7.68293 10.7796C5.80139 9.99837 4.5993 8.12337 4.49477 7.96712C4.39025 7.86296 3.7108 6.97754 3.7108 6.04004C3.7108 5.10254 4.18118 4.68587 4.33798 4.47754C4.49477 4.26921 4.70383 4.26921 4.86063 4.26921C4.96516 4.26921 5.12195 4.26921 5.22648 4.26921C5.33101 4.26921 5.4878 4.21712 5.6446 4.58171C5.80139 4.94629 6.16725 5.88379 6.21951 5.93587C6.27178 6.04004 6.27178 6.14421 6.21951 6.24837C6.16725 6.35254 6.11498 6.45671 6.01045 6.56087C5.90592 6.66504 5.80139 6.82129 5.74913 6.87337C5.6446 6.97754 5.54007 7.08171 5.6446 7.23796C5.74913 7.44629 6.11498 8.01921 6.6899 8.54004C7.4216 9.16504 7.99652 9.37337 8.20558 9.47754C8.41463 9.58171 8.51916 9.52962 8.62369 9.42546C8.72822 9.32129 9.09408 8.90462 9.19861 8.69629C9.30314 8.48796 9.45993 8.54004 9.61672 8.59212C9.77352 8.64421 10.7143 9.11296 10.8711 9.21712C11.0801 9.32129 11.1847 9.37337 11.2369 9.42546C11.2892 9.58171 11.2892 9.94629 11.1324 10.363Z" fill="#FF762B"/>
</svg>
