<svg width="20" height="16" viewBox="0 0 20 16" fill="none" xmlns="http://www.w3.org/2000/svg">
<path d="M1.81109 6.96804C1.81109 6.96804 10.0669 3.45574 12.9302 2.21897C14.0278 1.72431 17.75 0.141238 17.75 0.141238C17.75 0.141238 19.468 -0.551294 19.3249 1.13064C19.2771 1.82324 18.8954 4.2472 18.5136 6.8691C17.9409 10.5793 17.3205 14.6358 17.3205 14.6358C17.3205 14.6358 17.2251 15.7736 16.4138 15.9715C15.6026 16.1694 14.2663 15.279 14.0278 15.081C13.8368 14.9327 10.4487 12.7065 9.20791 11.6182C8.87384 11.3214 8.49209 10.7278 9.25559 10.0352C10.9736 8.40267 13.0256 6.37444 14.2663 5.08824C14.839 4.49457 15.4117 3.10944 13.0256 4.79137C9.6374 7.21541 6.2969 9.49101 6.2969 9.49101C6.2969 9.49101 5.53334 9.98567 4.10171 9.54044C2.67002 9.09527 0.99977 8.5016 0.99977 8.5016C0.99977 8.5016 -0.145478 7.75957 1.81109 6.96804Z" fill="#0E0E0E" fill-opacity="0.5"/>
</svg>
