<svg width="22" height="22" viewBox="0 0 22 22" fill="none" xmlns="http://www.w3.org/2000/svg">
<path d="M7.3586 11C7.3586 8.98942 8.98899 7.35913 11.0007 7.35913C13.0125 7.35913 14.6437 8.98942 14.6437 11C14.6437 13.0105 13.0125 14.6408 11.0007 14.6408C8.98899 14.6408 7.3586 13.0105 7.3586 11ZM5.38926 11C5.38926 14.0973 7.90151 16.6081 11.0007 16.6081C14.1 16.6081 16.6122 14.0973 16.6122 11C16.6122 7.90259 14.1 5.39185 11.0007 5.39185C7.90151 5.39185 5.38926 7.90259 5.38926 11ZM15.523 5.16949C15.5229 5.4287 15.5997 5.68212 15.7437 5.8977C15.8877 6.11328 16.0924 6.28135 16.332 6.38064C16.5716 6.47993 16.8353 6.50599 17.0897 6.45552C17.3441 6.40505 17.5778 6.28033 17.7613 6.09711C17.9447 5.91389 18.0697 5.68042 18.1204 5.42621C18.1711 5.172 18.1453 4.90847 18.0461 4.66895C17.9469 4.42944 17.7789 4.22468 17.5633 4.08059C17.3477 3.93649 17.0942 3.85953 16.8349 3.85942H16.8343C16.4867 3.85958 16.1533 3.99764 15.9074 4.24328C15.6615 4.48891 15.5233 4.82204 15.523 5.16949V5.16949ZM6.58576 19.8899C5.52031 19.8414 4.94121 19.664 4.55637 19.5142C4.04615 19.3156 3.68211 19.0792 3.29937 18.6972C2.91662 18.3152 2.6797 17.9518 2.48194 17.4419C2.33192 17.0574 2.15445 16.4785 2.10601 15.4137C2.05303 14.2625 2.04246 13.9166 2.04246 11C2.04246 8.08345 2.05391 7.73859 2.10601 6.58641C2.15454 5.5216 2.33332 4.9438 2.48194 4.55823C2.68057 4.04832 2.91714 3.6845 3.29937 3.30198C3.68159 2.91947 4.04528 2.68269 4.55637 2.48505C4.94104 2.33512 5.52031 2.15775 6.58576 2.10935C7.73768 2.0564 8.08371 2.04583 11.0007 2.04583C13.9178 2.04583 14.2641 2.05727 15.417 2.10935C16.4825 2.15784 17.0606 2.33652 17.4464 2.48505C17.9566 2.68269 18.3207 2.91999 18.7034 3.30198C19.0862 3.68398 19.3222 4.04832 19.5208 4.55823C19.6709 4.94267 19.8483 5.5216 19.8968 6.58641C19.9497 7.73859 19.9603 8.08345 19.9603 11C19.9603 13.9166 19.9497 14.2615 19.8968 15.4137C19.8482 16.4785 19.6699 17.0572 19.5208 17.4419C19.3222 17.9518 19.0856 18.3156 18.7034 18.6972C18.3212 19.0789 17.9566 19.3156 17.4464 19.5142C17.0617 19.6641 16.4825 19.8415 15.417 19.8899C14.2651 19.9428 13.9191 19.9534 11.0007 19.9534C8.0824 19.9534 7.73733 19.9428 6.58576 19.8899V19.8899ZM6.49528 0.14451C5.33191 0.197458 4.53696 0.381814 3.84271 0.651796C3.12373 0.930602 2.51508 1.30464 1.90686 1.91154C1.29864 2.51843 0.925338 3.12768 0.646365 3.84623C0.376221 4.54049 0.191754 5.33453 0.138775 6.4972C0.0849206 7.66171 0.0725937 8.034 0.0725937 11C0.0725937 13.9659 0.0849206 14.3382 0.138775 15.5027C0.191754 16.6655 0.376221 17.4594 0.646365 18.1537C0.925338 18.8718 1.29873 19.4817 1.90686 20.0884C2.51499 20.695 3.12373 21.0685 3.84271 21.3481C4.53827 21.6181 5.33191 21.8024 6.49528 21.8554C7.66109 21.9083 8.033 21.9215 11.0007 21.9215C13.9685 21.9215 14.341 21.9092 15.5062 21.8554C16.6696 21.8024 17.4641 21.6181 18.1588 21.3481C18.8773 21.0685 19.4864 20.6953 20.0946 20.0884C20.7028 19.4815 21.0753 18.8718 21.3551 18.1537C21.6252 17.4594 21.8106 16.6654 21.8627 15.5027C21.9157 14.3373 21.928 13.9659 21.928 11C21.928 8.034 21.9157 7.66171 21.8627 6.4972C21.8097 5.33445 21.6252 4.54005 21.3551 3.84623C21.0753 3.12811 20.7019 2.51939 20.0946 1.91154C19.4874 1.30368 18.8773 0.930602 18.1596 0.651796C17.4641 0.381814 16.6696 0.196584 15.5071 0.14451C14.3419 0.0915624 13.9693 0.0783691 11.0016 0.0783691C8.03387 0.0783691 7.66109 0.0906887 6.49528 0.14451Z" fill="#0E0E0E" fill-opacity="0.5"/>
</svg>
