<svg width="21" height="20" viewBox="0 0 21 20" fill="none" xmlns="http://www.w3.org/2000/svg">
<path fill-rule="evenodd" clip-rule="evenodd" d="M10.2648 0.188507C9.90816 0.188508 9.5515 0.374319 9.36809 0.745942L6.97079 5.60341C6.82512 5.89855 6.54356 6.10312 6.21785 6.15045L0.857311 6.92938C0.0370911 7.04857 -0.290418 8.05654 0.303099 8.63508L4.18202 12.4161C4.4177 12.6458 4.52525 12.9768 4.46961 13.3012L3.55393 18.6401C3.41382 19.457 4.27125 20.08 5.00488 19.6943L9.79949 17.1736C9.94515 17.097 10.105 17.0587 10.2648 17.0587V0.188507Z" fill="#FF762B"/>
<path fill-rule="evenodd" clip-rule="evenodd" d="M9.99994 0.188507C10.3566 0.188508 10.7133 0.374319 10.8967 0.745942L13.294 5.60341C13.4396 5.89855 13.7212 6.10312 14.0469 6.15045L19.4075 6.92938C20.2277 7.04857 20.5552 8.05654 19.9617 8.63508L16.0828 12.4161C15.8471 12.6458 15.7395 12.9768 15.7952 13.3012L16.7108 18.6401C16.851 19.457 15.9935 20.08 15.2599 19.6943L10.4653 17.1736C10.3196 17.097 10.1598 17.0587 9.99994 17.0587V0.188507Z" fill="#DDDDDD"/>
</svg>
