<svg width="28" height="28" viewBox="0 0 28 28" fill="none" xmlns="http://www.w3.org/2000/svg">
<rect width="28" height="28" rx="14" fill="url(#paint0_linear_1452_117085)"/>
<path d="M20.6709 13.2148L19.6066 12.1492C19.4246 11.967 19.2776 11.6094 19.2776 11.357V9.84276C19.2776 9.22584 18.7734 8.72108 18.1573 8.72108H16.6519C16.3998 8.72108 16.0427 8.57386 15.8607 8.39159L14.7964 7.32599C14.3623 6.89134 13.6482 6.89134 13.214 7.32599L12.1358 8.39159C11.9607 8.57386 11.6036 8.72108 11.3446 8.72108H9.83921C9.22305 8.72108 8.71893 9.22584 8.71893 9.84276V11.35C8.71893 11.6024 8.57189 11.9599 8.38985 12.1422L7.32558 13.2078C6.89147 13.6425 6.89147 14.3575 7.32558 14.7922L8.38985 15.8578C8.57189 16.0401 8.71893 16.3976 8.71893 16.65V18.1572C8.71893 18.7742 9.22305 19.2789 9.83921 19.2789H11.3446C11.5966 19.2789 11.9537 19.4261 12.1358 19.6084L13.2 20.674C13.6341 21.1087 14.3483 21.1087 14.7824 20.674L15.8467 19.6084C16.0287 19.4261 16.3858 19.2789 16.6379 19.2789H18.1433C18.7594 19.2789 19.2635 18.7742 19.2635 18.1572V16.65C19.2635 16.3976 19.4106 16.0401 19.5926 15.8578L20.6569 14.7922C21.112 14.3645 21.112 13.6495 20.6709 13.2148ZM11.1975 11.9039C11.1975 11.5183 11.5126 11.2028 11.8977 11.2028C12.2828 11.2028 12.5979 11.5183 12.5979 11.9039C12.5979 12.2894 12.2898 12.6049 11.8977 12.6049C11.5126 12.6049 11.1975 12.2894 11.1975 11.9039ZM12.2688 16.4817C12.1638 16.5869 12.0308 16.636 11.8977 16.636C11.7647 16.636 11.6317 16.5869 11.5266 16.4817C11.3236 16.2784 11.3236 15.9419 11.5266 15.7386L15.7277 11.5323C15.9307 11.329 16.2668 11.329 16.4699 11.5323C16.6729 11.7356 16.6729 12.0721 16.4699 12.2754L12.2688 16.4817ZM16.0988 16.8112C15.7067 16.8112 15.3916 16.4957 15.3916 16.1102C15.3916 15.7246 15.7067 15.4091 16.0918 15.4091C16.4769 15.4091 16.7919 15.7246 16.7919 16.1102C16.7919 16.4957 16.4839 16.8112 16.0988 16.8112Z" fill="white"/>
<defs>
<linearGradient id="paint0_linear_1452_117085" x1="24" y1="-1.02179e-06" x2="11" y2="18" gradientUnits="userSpaceOnUse">
<stop stop-color="#FFCBA8"/>
<stop offset="1" stop-color="#FF762B"/>
</linearGradient>
</defs>
</svg>
