<svg width="16" height="16" viewBox="0 0 16 16" fill="none" xmlns="http://www.w3.org/2000/svg">
<path d="M10.6666 15.1666H1.99998C1.35998 15.1666 0.833313 14.6399 0.833313 13.9999V5.33325C0.833313 2.38659 2.38665 0.833252 5.33331 0.833252H10.6666C13.6133 0.833252 15.1666 2.38659 15.1666 5.33325V10.6666C15.1666 13.6133 13.6133 15.1666 10.6666 15.1666ZM5.33331 1.83325C2.94665 1.83325 1.83331 2.94659 1.83331 5.33325V13.9999C1.83331 14.0933 1.90665 14.1666 1.99998 14.1666H10.6666C13.0533 14.1666 14.1666 13.0533 14.1666 10.6666V5.33325C14.1666 2.94659 13.0533 1.83325 10.6666 1.83325H5.33331Z" fill="#45484D"/>
<path d="M11.3334 6.83325H4.66669C4.39335 6.83325 4.16669 6.60659 4.16669 6.33325C4.16669 6.05992 4.39335 5.83325 4.66669 5.83325H11.3334C11.6067 5.83325 11.8334 6.05992 11.8334 6.33325C11.8334 6.60659 11.6067 6.83325 11.3334 6.83325Z" fill="#45484D"/>
<path d="M9.33335 10.1667H4.66669C4.39335 10.1667 4.16669 9.94008 4.16669 9.66675C4.16669 9.39341 4.39335 9.16675 4.66669 9.16675H9.33335C9.60669 9.16675 9.83335 9.39341 9.83335 9.66675C9.83335 9.94008 9.60669 10.1667 9.33335 10.1667Z" fill="#45484D"/>
</svg>
