<svg width="12" height="13" viewBox="0 0 12 13" fill="none" xmlns="http://www.w3.org/2000/svg">
<path d="M6 0.614075C2.69333 0.614075 0 3.30741 0 6.61407C0 9.92074 2.69333 12.6141 6 12.6141C9.30667 12.6141 12 9.92074 12 6.61407C12 3.30741 9.30667 0.614075 6 0.614075ZM6 11.6141C3.24 11.6141 1 9.37407 1 6.61407C1 3.85407 3.24 1.61407 6 1.61407C8.76 1.61407 11 3.85407 11 6.61407C11 9.37407 8.76 11.6141 6 11.6141ZM7.53333 3.74741C7.94 4.15407 8.16667 4.70074 8.16667 5.28074C8.16667 5.86074 7.94 6.40074 7.53333 6.81407C7.24667 7.10074 6.88667 7.30074 6.5 7.38741V7.61407C6.5 7.88741 6.27333 8.11407 6 8.11407C5.72667 8.11407 5.5 7.88741 5.5 7.61407V6.94741C5.5 6.67408 5.72667 6.44741 6 6.44741C6.31333 6.44741 6.60667 6.32741 6.82667 6.10741C7.04667 5.88741 7.16667 5.59407 7.16667 5.28074C7.16667 4.96741 7.04667 4.67408 6.82667 4.45407C6.38667 4.01408 5.62 4.01408 5.18 4.45407C4.96 4.67408 4.84 4.96741 4.84 5.28074C4.84 5.55407 4.61333 5.78074 4.34 5.78074C4.06667 5.78074 3.84 5.55407 3.84 5.28074C3.84 4.70074 4.06667 4.16074 4.47333 3.74741C5.29333 2.92741 6.72 2.92741 7.54 3.74741H7.53333ZM6.66667 9.44741C6.66667 9.81407 6.36667 10.1141 6 10.1141C5.63333 10.1141 5.33333 9.81407 5.33333 9.44741C5.33333 9.08074 5.63333 8.78074 6 8.78074C6.36667 8.78074 6.66667 9.08074 6.66667 9.44741Z" fill="white" fill-opacity="0.5"/>
</svg>
