<svg width="14" height="15" viewBox="0 0 14 15" fill="none" xmlns="http://www.w3.org/2000/svg">
<path d="M6.98177 1.66675C3.76177 1.66675 1.14844 4.28008 1.14844 7.50008C1.14844 10.7201 3.76177 13.3334 6.98177 13.3334C10.2018 13.3334 12.8151 10.7201 12.8151 7.50008C12.8151 4.28008 10.2076 1.66675 6.98177 1.66675ZM9.16927 7.70425L6.99927 10.1717L6.7426 10.4634C6.38677 10.8659 6.0951 10.7609 6.0951 10.2184V7.90841H5.10344C4.65427 7.90841 4.53177 7.63425 4.82927 7.29591L6.99927 4.82841L7.25594 4.53675C7.61177 4.13425 7.90344 4.23925 7.90344 4.78175V7.09175H8.8951C9.34427 7.09175 9.46677 7.36592 9.16927 7.70425Z" fill="#FF762B"/>
</svg>
