<svg width="15" height="15" viewBox="0 0 15 15" fill="none" xmlns="http://www.w3.org/2000/svg">
<path d="M7.48177 1.66675C4.26177 1.66675 1.64844 4.28008 1.64844 7.50008C1.64844 10.7201 4.26177 13.3334 7.48177 13.3334C10.7018 13.3334 13.3151 10.7201 13.3151 7.50008C13.3151 4.28008 10.7076 1.66675 7.48177 1.66675ZM9.66927 7.70425L7.49927 10.1717L7.2426 10.4634C6.88677 10.8659 6.5951 10.7609 6.5951 10.2184V7.90841H5.60344C5.15427 7.90841 5.03177 7.63425 5.32927 7.29591L7.49927 4.82841L7.75594 4.53675C8.11177 4.13425 8.40344 4.23925 8.40344 4.78175V7.09175H9.3951C9.84427 7.09175 9.96677 7.36592 9.66927 7.70425Z" fill="#FF762B"/>
</svg>
