<svg width="14" height="14" viewBox="0 0 14 14" fill="none" xmlns="http://www.w3.org/2000/svg">
<path d="M7.40812 0.452576C3.79384 0.452576 0.860504 3.38591 0.860504 7.00019C0.860504 10.6145 3.79384 13.5478 7.40812 13.5478C11.0224 13.5478 13.9557 10.6145 13.9557 7.00019C13.9557 3.38591 11.029 0.452576 7.40812 0.452576ZM9.86348 7.22936L7.42777 9.999L7.13967 10.3264C6.74027 10.7782 6.41288 10.6603 6.41288 10.0514V7.45853H5.29979C4.79562 7.45853 4.65812 7.15079 4.99205 6.77103L7.42777 4.00139L7.71586 3.674C8.11527 3.22222 8.44265 3.34008 8.44265 3.949V6.54186H9.55574C10.0599 6.54186 10.1974 6.8496 9.86348 7.22936Z" fill="#F8F8F8"/>
</svg>
